<svg xmlns="http://www.w3.org/2000/svg" viewBox="0 0 18 18"><defs><style>.cls-1{fill:#495584;}.cls-2{fill:none;}</style></defs><title>icon_page</title><g id="Layer_2" data-name="Layer 2"><g id="icon"><path class="cls-1" d="M15.79,15.21H13.3V13.78h1.78V1.93H5.18v1.5H3.76V1.22A.71.71,0,0,1,4.47.5H15.79a.71.71,0,0,1,.71.72V14.5A.71.71,0,0,1,15.79,15.21Z"/><path class="cls-1" d="M13.53,17.5H2.21a.71.71,0,0,1-.71-.72V3.5a.71.71,0,0,1,.71-.72H8.09a.7.7,0,0,1,.49.2L14,8.25a.72.72,0,0,1,.22.52v8A.71.71,0,0,1,13.53,17.5ZM2.91,16.07h9.91v-7l-5-4.86H2.91Z"/><path class="cls-1" d="M13.53,9.49H8.09a.71.71,0,0,1-.71-.72V3.5a.72.72,0,0,1,.43-.66A.7.7,0,0,1,8.58,3L14,8.25a.72.72,0,0,1,.17.78A.71.71,0,0,1,13.53,9.49ZM8.8,8.06h3l-3-2.87Z"/><rect class="cls-2" width="18" height="18"/></g></g></svg>