<svg xmlns="http://www.w3.org/2000/svg" viewBox="0 0 18 18"><defs><style>.cls-1{fill:#495584;}.cls-2{fill:none;}</style></defs><title>icon_customer</title><g id="Layer_2" data-name="Layer 2"><g id="icon"><path class="cls-1" d="M9,17a8,8,0,1,1,8-8A8,8,0,0,1,9,17ZM9,2.42A6.58,6.58,0,1,0,15.58,9,6.58,6.58,0,0,0,9,2.42Z"/><circle class="cls-1" cx="9" cy="5.93" r="0.91"/><polygon class="cls-1" points="9.91 12.42 9.91 8.3 9.91 8.08 9.91 7.86 7.63 7.86 7.63 8.3 8.54 8.3 8.54 12.42 7.41 12.42 7.41 12.87 8.54 12.87 9.91 12.87 10.59 12.87 10.59 12.42 9.91 12.42"/><rect class="cls-2" width="18" height="18"/></g></g></svg>