<svg xmlns="http://www.w3.org/2000/svg" viewBox="0 0 37 30"><defs><style>.cls-1{fill:#fff;}</style></defs><title>icon_payment3</title><g id="Layer_2" data-name="Layer 2"><g id="icon"><path class="cls-1" d="M36,26H32V24h3V2H15V24h9v2H14a1,1,0,0,1-1-1V1a1,1,0,0,1,1-1H36a1,1,0,0,1,1,1V25A1,1,0,0,1,36,26Z"/><path class="cls-1" d="M6,26H1a1,1,0,0,1-1-1V18.13a1,1,0,0,1,.11-.46L6.32,5.54A1,1,0,0,1,7.21,5H13V7H7.82L2,18.38V24H6Z"/><path class="cls-1" d="M10,30a5,5,0,1,1,5-5A5,5,0,0,1,10,30Zm0-8a3,3,0,1,0,3,3A3,3,0,0,0,10,22Z"/><path class="cls-1" d="M28,30a5,5,0,1,1,5-5A5,5,0,0,1,28,30Zm0-8a3,3,0,1,0,3,3A3,3,0,0,0,28,22Z"/><rect class="cls-1" x="14.5" y="15.5" width="21" height="2"/></g></g></svg>