<svg xmlns="http://www.w3.org/2000/svg" viewBox="0 0 18 18"><defs><style>.cls-1{fill:#495584;}.cls-2{fill:none;}</style></defs><title>icon_recruit</title><g id="Layer_2" data-name="Layer 2"><g id="icon"><path class="cls-1" d="M8,8.33A3.58,3.58,0,0,1,4.31,4.92,3.58,3.58,0,0,1,8,1.5a3.58,3.58,0,0,1,3.72,3.42A3.58,3.58,0,0,1,8,8.33Zm0-5.6A2.29,2.29,0,0,0,5.65,4.92,2.29,2.29,0,0,0,8,7.1,2.29,2.29,0,0,0,10.4,4.92,2.29,2.29,0,0,0,8,2.73Z"/><path class="cls-1" d="M14.88,16.5H1.17a.64.64,0,0,1-.67-.62v-.62C.5,11.7,4.47,9,8,9s7.53,2.66,7.53,6.21v.62A.64.64,0,0,1,14.88,16.5Zm-13-1.23H14.21c0-2.81-3.33-5-6.19-5s-6.19,2.18-6.19,5Z"/><rect class="cls-1" x="12.76" y="7.1" width="4.74" height="1.23"/><rect class="cls-1" x="14.46" y="5.54" width="1.34" height="4.35"/><rect class="cls-2" width="18" height="18"/></g></g></svg>