<svg xmlns="http://www.w3.org/2000/svg" viewBox="0 0 18 18"><defs><style>.cls-1{fill:#495584;}.cls-2{fill:none;}</style></defs><title>icon_etc</title><g id="Layer_2" data-name="Layer 2"><g id="icon"><path class="cls-1" d="M13.39,17a1.41,1.41,0,0,1-.72-.2L9,14.58,5.33,16.8a1.41,1.41,0,0,1-1.54-.06,1.35,1.35,0,0,1-.53-1.42l1-4.14L1,8.47A1.34,1.34,0,0,1,.57,7a1.38,1.38,0,0,1,1.21-.94L6.1,5.73,7.72,1.84a1.4,1.4,0,0,1,2.57,0l1.67,3.93,4.27.3A1.38,1.38,0,0,1,17.43,7,1.34,1.34,0,0,1,17,8.47l-3.3,2.77,1,4.08a1.35,1.35,0,0,1-.53,1.42A1.41,1.41,0,0,1,13.39,17ZM2,7.48l3.18,2.68a1.34,1.34,0,0,1,.45,1.35l-1,4,3.58-2.14a1.4,1.4,0,0,1,1.45,0l3.58,2.14-1-4a1.34,1.34,0,0,1,.45-1.35L16,7.48l-4.18-.33a1.38,1.38,0,0,1-1.17-.84L9,2.47,7.39,6.32a1.38,1.38,0,0,1-1.17.84ZM9.61,2.11l-.67.27h0Z"/><rect class="cls-2" width="18" height="18"/></g></g></svg>