<svg xmlns="http://www.w3.org/2000/svg" viewBox="0 0 18 18"><defs><style>.cls-1{fill:#495584;}.cls-2{fill:none;}</style></defs><title>icon_ebook</title><g id="Layer_2" data-name="Layer 2"><g id="icon"><path class="cls-1" d="M15.21.5H4.45A2.44,2.44,0,0,0,2,2.93V15.17A2.37,2.37,0,0,0,4.36,17.5H15.21a.79.79,0,0,0,.79-.8V1.3A.79.79,0,0,0,15.21.5Zm-.79,12.35H6.53V2.09h7.89ZM4.45,2.09h.49V12.85H4.36a2.3,2.3,0,0,0-.77.14V2.93A.85.85,0,0,1,4.45,2.09ZM4.36,15.91a.73.73,0,1,1,0-1.47H14.41v1.47Z"/><rect class="cls-2" width="18" height="18"/></g></g></svg>