<svg xmlns="http://www.w3.org/2000/svg" viewBox="0 0 18.55 19.55"><defs><style>.cls-1{fill:#495584;}.cls-2{fill:none;}</style></defs><title>icon_base</title><g id="Layer_2" data-name="Layer 2"><g id="icon"><path class="cls-1" d="M10.87,19.55H7.68a.78.78,0,0,1-.77-.69l-.21-2a7.46,7.46,0,0,1-2.19-1.28l-1.83.82a.77.77,0,0,1-1-.32L.1,13.26a.77.77,0,0,1,.21-1l1.63-1.2a7.25,7.25,0,0,1,0-2.56L.32,7.29a.77.77,0,0,1-.21-1L1.69,3.5a.77.77,0,0,1,1-.32L4.51,4A7.45,7.45,0,0,1,6.7,2.72l.21-2A.78.78,0,0,1,7.68,0h3.18a.78.78,0,0,1,.77.69l.21,2A7.45,7.45,0,0,1,14,4l1.83-.82a.78.78,0,0,1,1,.32l1.59,2.79a.78.78,0,0,1-.21,1l-1.63,1.2a7.26,7.26,0,0,1,0,2.57l1.63,1.2a.78.78,0,0,1,.21,1l-1.59,2.79a.78.78,0,0,1-1,.32L14,15.55a7.46,7.46,0,0,1-2.19,1.28l-.21,2A.78.78,0,0,1,10.87,19.55ZM8.38,18h1.79l.19-1.83a.78.78,0,0,1,.55-.66,5.9,5.9,0,0,0,2.44-1.43.78.78,0,0,1,.86-.15l1.65.74.9-1.58L15.29,12A.78.78,0,0,1,15,11.2a5.83,5.83,0,0,0,0-2.86.78.78,0,0,1,.29-.81l1.47-1.08-.9-1.58-1.65.74a.77.77,0,0,1-.86-.15A5.89,5.89,0,0,0,10.91,4a.78.78,0,0,1-.55-.66l-.19-1.83H8.38L8.19,3.38A.78.78,0,0,1,7.64,4,5.89,5.89,0,0,0,5.2,5.46a.77.77,0,0,1-.86.15L2.69,4.88l-.9,1.58L3.26,7.54a.77.77,0,0,1,.29.81,5.83,5.83,0,0,0,0,2.86.78.78,0,0,1-.29.81L1.79,13.1l.9,1.58,1.65-.74a.78.78,0,0,1,.86.15,5.9,5.9,0,0,0,2.44,1.43.78.78,0,0,1,.55.66Zm.89-4.08a4.15,4.15,0,1,1,4.11-4.15A4.14,4.14,0,0,1,9.28,13.92Zm0-6.75a2.6,2.6,0,1,0,2.56,2.6A2.58,2.58,0,0,0,9.28,7.17Z"/><rect class="cls-2" x="0.28" y="0.77" width="18" height="18"/></g></g></svg>