<svg xmlns="http://www.w3.org/2000/svg" viewBox="0 0 18 18"><defs><style>.cls-1{fill:#495584;}.cls-2{fill:none;}</style></defs><title>icon_member</title><g id="Layer_2" data-name="Layer 2"><g id="icon"><path class="cls-1" d="M9,8.33a3.42,3.42,0,1,1,3.46-3.42A3.44,3.44,0,0,1,9,8.33Zm0-5.6a2.18,2.18,0,1,0,2.21,2.18A2.2,2.2,0,0,0,9,2.73Z"/><path class="cls-1" d="M15.38,16.5H2.62A.62.62,0,0,1,2,15.88v-.62C2,11.7,5.7,9,9,9s7,2.66,7,6.21v.62A.62.62,0,0,1,15.38,16.5ZM3.25,15.27H14.75c0-2.81-3.09-5-5.75-5s-5.75,2.18-5.75,5Z"/><rect class="cls-2" width="18" height="18"/></g></g></svg>