<svg xmlns="http://www.w3.org/2000/svg" viewBox="0 0 35 34"><defs><style>.cls-1{fill:#fff;}</style></defs><title>icon_payment2</title><g id="Layer_2" data-name="Layer 2"><g id="icon"><path class="cls-1" d="M30.11,34H23.58a1,1,0,0,1-1-1,1.51,1.51,0,0,0-3,0,1,1,0,0,1-1,1h-7a1,1,0,0,1-1-1,1.51,1.51,0,0,0-3,0,1,1,0,0,1-1,1H1a1,1,0,0,1-1-1L.11,5a5,5,0,0,1,5-5H34a1,1,0,0,1,.16,2H34a3.09,3.09,0,0,0-2.26.68,3.41,3.41,0,0,0-.62,2.54V33A1,1,0,0,1,30.11,34Zm-5.67-2h4.67V5.25A6.09,6.09,0,0,1,29.76,2H5.11a3,3,0,0,0-3,3L2,32H5.67a3.51,3.51,0,0,1,6.73,0h5.31a3.51,3.51,0,0,1,6.73,0Z"/><rect class="cls-1" x="8.11" y="10" width="15" height="2"/><rect class="cls-1" x="8.11" y="16" width="15" height="2"/><rect class="cls-1" x="8.11" y="22" width="15" height="2"/></g></g></svg>