<svg xmlns="http://www.w3.org/2000/svg" viewBox="0 0 18 18"><defs><style>.cls-1{fill:#495584;}.cls-2{fill:none;}</style></defs><title>icon_order</title><g id="Layer_2" data-name="Layer 2"><g id="icon"><path class="cls-1" d="M5.72,18a2.85,2.85,0,1,1,2.82-2.85A2.84,2.84,0,0,1,5.72,18Zm0-4.1A1.25,1.25,0,1,0,7,15.15,1.24,1.24,0,0,0,5.72,13.9Z"/><path class="cls-1" d="M13.82,18a2.85,2.85,0,1,1,2.82-2.85A2.84,2.84,0,0,1,13.82,18Zm0-4.1a1.25,1.25,0,1,0,1.23,1.25A1.24,1.24,0,0,0,13.82,13.9Z"/><path class="cls-1" d="M15.32,11.85h-11a.79.79,0,0,1-.76-.58L.9,1.6H0V0H1.5a.79.79,0,0,1,.76.58l.83,3H17.21a.79.79,0,0,1,.63.32.81.81,0,0,1,.13.7l-1.89,6.66A.79.79,0,0,1,15.32,11.85ZM4.94,10.25h9.78l1.44-5.06H3.54Z"/><rect class="cls-1" x="7.75" y="14.35" width="4.56" height="1.6"/><polygon class="cls-1" points="7 13.46 5.46 13.08 5.97 11.03 7.5 11.41 7 13.46"/><rect class="cls-2" width="18" height="18"/></g></g></svg>