<svg xmlns="http://www.w3.org/2000/svg" viewBox="0 0 34 34.35"><defs><style>.cls-1{fill:#fff;}</style></defs><title>icon_payment4</title><g id="Layer_2" data-name="Layer 2"><g id="icon"><rect class="cls-1" x="21.46" y="16.35" width="10.54" height="2"/><rect class="cls-1" x="2" y="16.35" width="10.88" height="2"/><path class="cls-1" d="M33,34.35H1a1,1,0,0,1-1-1V8.86a1,1,0,0,1,1-1H1c.3,0,30.07.06,32,0a.92.92,0,0,1,.73.28,1,1,0,0,1,.3.72V33.35A1,1,0,0,1,33,34.35Zm-31-2H32V9.88c-5,0-25.17,0-30,0Z"/><path class="cls-1" d="M12.88,25.29a1,1,0,0,1-1-1V8.86a1,1,0,0,1,1-1h8.58a1,1,0,0,1,1,1V24.29a1,1,0,0,1-1.55.83l-3.74-2.46-3.74,2.46A1,1,0,0,1,12.88,25.29Zm1-15.43V22.44l2.74-1.8a1,1,0,0,1,1.1,0l2.74,1.8V9.86Z"/><path class="cls-1" d="M13.64,9.87c-10.73,0-10.78,0-11-.16a1,1,0,0,1-.48-.86V6.95c0-3.1,1-5.38,2.73-6.4A4.49,4.49,0,0,1,9.46.71L14.51,4,13.43,5.66l-5-3.24a2.49,2.49,0,0,0-2.51-.15C4.8,2.92,4.17,4.62,4.17,6.95v.92h26V6.95c0-2.33-.63-4-1.74-4.68a2.53,2.53,0,0,0-2.56.18l-5,3.21L19.82,4l5-3.24a4.52,4.52,0,0,1,4.61-.2c1.76,1,2.73,3.3,2.73,6.4V8.86a1,1,0,0,1-1,1H13.64Z"/><path class="cls-1" d="M13.35,9.86a1,1,0,0,1-1-1V5.76A2.64,2.64,0,0,1,15,3.12h4.31a2.64,2.64,0,0,1,2.63,2.63V8.86a1,1,0,0,1-1.23,1c-.63,0-4.19,0-7.34,0ZM15,5.12a.64.64,0,0,0-.63.63V7.85c2.89,0,4.57-.06,5.58,0V5.76a.64.64,0,0,0-.63-.63Z"/></g></g></svg>