<svg xmlns="http://www.w3.org/2000/svg" viewBox="0 0 18 18"><defs><style>.cls-1{fill:#495584;}.cls-2{fill:none;}</style></defs><title>icon_statistics</title><g id="Layer_2" data-name="Layer 2"><g id="icon"><path class="cls-1" d="M16.29,13.36H1.71A.71.71,0,0,1,1,12.64V1.71A.71.71,0,0,1,1.71,1H16.29a.71.71,0,0,1,.71.71V12.64A.71.71,0,0,1,16.29,13.36ZM2.42,11.93H15.58V2.42H2.42Z"/><rect class="cls-1" x="4.29" y="15.58" width="9.41" height="1.42"/><rect class="cls-1" x="5.05" y="13.76" width="3.8" height="1.42" transform="translate(-8.88 17.08) rotate(-73.73)"/><rect class="cls-1" x="10.34" y="12.57" width="1.42" height="3.8" transform="translate(-3.61 3.67) rotate(-16.26)"/><path class="cls-1" d="M6.84,7.11a1.54,1.54,0,0,1-.35,0,1.52,1.52,0,1,1,.35,0Zm0-2a.51.51,0,1,0,.12,0Z"/><rect class="cls-1" x="7.31" y="6.21" width="1.02" height="1.92" transform="translate(-2.61 5.2) rotate(-31.83)"/><path class="cls-1" d="M12.08,8.36a1.53,1.53,0,1,1,.79-.22A1.53,1.53,0,0,1,12.08,8.36Zm0-2a.51.51,0,0,0-.27.07.51.51,0,1,0,.27-.07Z"/><rect class="cls-1" x="9.53" y="7.3" width="1.92" height="1.02" transform="translate(-2.53 6.6) rotate(-31.36)"/><path class="cls-1" d="M8.81,10.3a1.53,1.53,0,1,1,.8-.23h0A1.52,1.52,0,0,1,8.81,10.3Zm0-2A.51.51,0,0,0,8.38,9a.51.51,0,0,0,.71.17h0a.51.51,0,0,0-.27-.95Z"/><rect class="cls-2" width="18" height="18"/></g></g></svg>