<svg xmlns="http://www.w3.org/2000/svg" viewBox="0 0 18 18"><defs><style>.cls-1{fill:#495584;}.cls-2{fill:none;}</style></defs><title>icon_product</title><g id="Layer_2" data-name="Layer 2"><g id="icon"><path class="cls-1" d="M9,9.53a.52.52,0,0,1-.26-.07L1.27,5.22a.53.53,0,0,1,0-.92L8.74.07a.52.52,0,0,1,.51,0L16.73,4.3a.53.53,0,0,1,0,.92L9.26,9.46A.52.52,0,0,1,9,9.53ZM2.59,4.76,9,8.4l6.41-3.63L9,1.13Z"/><polygon class="cls-1" points="5.63 7.12 5.12 6.2 12.6 1.96 13.11 2.88 5.63 7.12"/><path class="cls-1" d="M9,18a.52.52,0,0,1-.26-.07L1.27,13.7A.53.53,0,0,1,1,13.24V4.76a.53.53,0,0,1,.26-.45.52.52,0,0,1,.52,0L9.26,8.54A.53.53,0,0,1,9.52,9v8.47a.53.53,0,0,1-.26.45A.52.52,0,0,1,9,18ZM2,12.93l6.44,3.65V9.31L2,5.66Z"/><polygon class="cls-1" points="12.69 7.12 5.21 2.88 5.72 1.96 13.2 6.2 12.69 7.12"/><path class="cls-1" d="M9,14.45a.52.52,0,0,1-.26-.07L4.82,12.15a.53.53,0,0,1-.2-.72.52.52,0,0,1,.71-.2l3.95,2.24a.53.53,0,0,1,.2.72A.52.52,0,0,1,9,14.45Z"/><path class="cls-1" d="M9,18a.52.52,0,0,1-.26-.07.53.53,0,0,1-.26-.45V9a.53.53,0,0,1,.27-.46L16.22,4.3a.52.52,0,0,1,.52,0,.53.53,0,0,1,.26.45v8.47a.53.53,0,0,1-.27.46L9.26,17.93A.52.52,0,0,1,9,18Zm.52-8.69v7.27L16,12.93V5.66Z"/><rect class="cls-2" width="18" height="18"/></g></g></svg>