<svg xmlns="http://www.w3.org/2000/svg" viewBox="0 0 20.35 20.35"><defs><style>.cls-1{fill:#495584;}</style></defs><title>icon_account</title><g id="Layer_2" data-name="Layer 2"><g id="icon"><path class="cls-1" d="M10.18,10.85a.87.87,0,0,1-.38-.09L.49,6.21a.88.88,0,0,1,0-1.57L9.79.09a.87.87,0,0,1,.77,0l9.3,4.55a.88.88,0,0,1,0,1.57l-9.3,4.55A.87.87,0,0,1,10.18,10.85ZM2.87,5.43,10.18,9l7.31-3.58L10.18,1.85Z"/><path class="cls-1" d="M10.18,15.6a.87.87,0,0,1-.38-.09L.49,11a.88.88,0,0,1,.77-1.57l8.92,4.36,8.92-4.36A.88.88,0,1,1,19.86,11l-9.3,4.55A.87.87,0,0,1,10.18,15.6Z"/><path class="cls-1" d="M10.18,20.35a.87.87,0,0,1-.38-.09L.49,15.71a.88.88,0,0,1,.77-1.57l8.92,4.36,8.92-4.36a.88.88,0,0,1,.77,1.57l-9.3,4.55A.87.87,0,0,1,10.18,20.35Z"/></g></g></svg>