<?xml version="1.0" encoding="utf-8"?>
<!-- Generator: Adobe Illustrator 26.5.3, SVG Export Plug-In . SVG Version: 6.00 Build 0)  -->
<svg version="1.1" id="레이어_1" xmlns="http://www.w3.org/2000/svg" xmlns:xlink="http://www.w3.org/1999/xlink" x="0px"
	 y="0px" viewBox="0 0 768 1176" style="enable-background:new 0 0 768 1176;" xml:space="preserve">
<style type="text/css">
	.st0{fill:none;stroke:#9B9B9B;stroke-miterlimit:10;}
	.st1{opacity:0.3;}
	.st2{fill:#4B78B8;}
	.st3{fill:#FFFFFF;}
	.st4{fill:#C9DBF3;}
	.st5{fill:#E9EFF7;}
	.st6{fill:#E9E9E9;}
</style>
<line class="st0" x1="363.9" y1="182.5" x2="363.9" y2="1112.6"/>
<g>
	<g class="st1">
		
			<image style="overflow:visible;" width="512" height="513" xlink:href="43AE289C.png"  transform="matrix(0.48 0 0 0.48 241.5319 -29.76)">
		</image>
	</g>
	<circle class="st2" cx="364.5" cy="92.1" r="85.7"/>
	<circle class="st3" cx="364.5" cy="92.1" r="58.5"/>
	<g>
		<path d="M343.8,90.7c0,5.1-2.6,8.3-6.1,8.3s-6.1-3.2-6.1-8.3c0-5.1,2.6-8.2,6.1-8.2S343.8,85.7,343.8,90.7z M334.8,90.7
			c0,3.4,1.2,5.3,2.9,5.3s2.9-1.8,2.9-5.3c0-3.4-1.2-5.2-2.9-5.2S334.8,87.3,334.8,90.7z M350.1,80.9v23.2h-3.3V80.9H350.1z"/>
		<path d="M362.6,86c0,4.2,1.6,8.4,5.3,10.2l-2,2.6c-2.4-1.2-4-3.5-5-6.2c-1,2.9-2.7,5.4-5.3,6.7l-2-2.7c3.9-1.8,5.6-6.2,5.6-10.5
			v-3.4h3.3V86z M375.5,92.6h-3.4V104h-3.3V80.9h3.3v8.9h3.4V92.6z"/>
		<path d="M386.3,97.3c1.9-0.1,3.8-0.3,5.6-0.5l0.3,2.4c-5,0.9-10.4,1-14.5,1l-0.4-2.7c1.7,0,3.7,0,5.7-0.1v-2
			c-2.5-0.5-4.1-2-4.1-4.2c0-2.6,2.4-4.3,5.7-4.3c3.4,0,5.7,1.8,5.7,4.3c0,2.2-1.6,3.7-4.1,4.2V97.3z M391.6,86h-13.9v-2.6h5.3V81
			h3.3v2.5h5.3V86z M384.7,93.2c1.6,0,2.6-0.7,2.6-1.9c0-1.2-1-1.8-2.6-1.8c-1.5,0-2.6,0.7-2.6,1.8
			C382.1,92.5,383.1,93.2,384.7,93.2z M396.4,80.9V104h-3.3V80.9H396.4z"/>
	</g>
</g>
<g>
	<path class="st4" d="M475.4,299.8h-221c-6.6,0-12-5.4-12-12v-35.4c0-6.6,5.4-12,12-12h221c6.6,0,12,5.4,12,12v35.4
		C487.4,294.4,482,299.8,475.4,299.8z"/>
	<g>
		<path d="M332.2,273.5c2,0,3.7-0.1,5.5-0.5l0.2,1.7c-2.1,0.4-4,0.5-6.5,0.5h-1.2v-11.4h6.6v1.7h-4.6V273.5z M344.8,261.6v17.8h-1.9
			v-9.1h-2.1v8.2h-1.9V262h1.9v6.7h2.1v-7H344.8z"/>
		<path d="M363.9,275.7v1.7h-16.1v-1.7h4.2v-3.8h-2.9v-1.6h2.6v-5.4H349v-1.6h13.4v1.6h-2.6v5.4h2.6v1.6h-2.9v3.8H363.9z
			 M353.7,270.2h4.1v-5.4h-4.1V270.2z M354,275.7h3.5v-3.8H354V275.7z"/>
		<path d="M375.6,269.2c0,3.9-1.9,6.3-4.6,6.3c-2.6,0-4.6-2.4-4.6-6.3c0-3.8,1.9-6.3,4.6-6.3C373.7,262.9,375.6,265.3,375.6,269.2z
			 M368.4,269.2c0,2.8,1.1,4.5,2.6,4.5c1.6,0,2.6-1.7,2.6-4.5c0-2.8-1.1-4.4-2.6-4.4C369.5,264.7,368.4,266.4,368.4,269.2z
			 M380.5,261.6v17.8h-2v-17.8H380.5z"/>
		<path d="M390.2,266c0,3.2,1.7,6.4,4.3,7.7l-1.2,1.6c-1.9-1-3.3-2.9-4.1-5.2c-0.8,2.5-2.3,4.5-4.3,5.6l-1.2-1.6
			c2.8-1.4,4.5-4.7,4.5-8v-2.9h2V266z M400.5,270.3h-2.8v9.1h-2v-17.8h2v7.1h2.8V270.3z"/>
	</g>
</g>
<g>
	<path class="st5" d="M239.2,427.6H25.7c-6.6,0-12-5.4-12-12v-35.4c0-6.6,5.4-12,12-12h213.5c6.6,0,12,5.4,12,12v35.4
		C251.2,422.2,245.8,427.6,239.2,427.6z"/>
	<g>
		<path d="M68.5,401.5c2.7,0,5.1-0.2,7.8-0.6l0.2,1.6c-2.9,0.5-5.5,0.6-8.5,0.6h-1.5v-6.8h6v-3.2h-6v-1.6h8v6.4h-6V401.5z
			 M79.7,389.9v17.2h-2v-17.2H79.7z"/>
		<path d="M97.6,403.3v1.6H82.1v-1.6H97.6z M96.1,400c-2.8-0.6-5.2-2.4-6.3-4.7c-1.1,2.4-3.5,4.1-6.3,4.7l-0.8-1.6
			c3.4-0.6,6.1-3.3,6.1-6v-1.3h2.1v1.3c0,2.7,2.8,5.4,6.1,6L96.1,400z"/>
		<path d="M114.1,403.3v1.6H98.6v-1.6H114.1z M110.4,396.3c0-0.9,0-1.8,0-2.7v-0.5h-10v-1.6h11.9v2.1c0,2.5,0,4.8-0.8,8.5l-1.9-0.2
			c0.4-1.5,0.6-2.9,0.6-4.1l-10.1,0.5l-0.2-1.6L110.4,396.3z"/>
		<path d="M125.8,399.6c-3.6,0.6-7.6,0.7-10.6,0.7l-0.2-1.6c1,0,2.2,0,3.4,0v-3.5h1.9v3.5c1.8-0.1,3.6-0.2,5.3-0.5L125.8,399.6z
			 M122.3,397.1c0.3-1.8,0.4-3.2,0.4-4.3H116v-1.6h8.6v1c0,1.2,0,2.8-0.4,5.1L122.3,397.1z M119.5,405.2h9.7v1.6h-11.7v-5.1h2V405.2
			z M130.9,395.4v1.6h-2.3v5.8h-2V390h2v5.4H130.9z"/>
		<path d="M134.6,401.5c2.7,0,5.1-0.2,7.8-0.6l0.2,1.6c-2.9,0.5-5.5,0.6-8.5,0.6h-1.5v-6.8h6v-3.2h-6v-1.6h8v6.4h-6V401.5z
			 M145.8,389.9v17.2h-2v-17.2H145.8z"/>
		<path d="M159.4,400c-1.5,0.3-3.1,0.5-4.6,0.6v6h-2v-5.9c-1.6,0.1-3.1,0.1-4.5,0.1l-0.2-1.6c3.1,0,7.4-0.1,11.1-0.6L159.4,400z
			 M149.4,394.3c0-2.1,1.9-3.6,4.4-3.6s4.4,1.5,4.4,3.6c0,2.1-1.9,3.6-4.4,3.6S149.4,396.4,149.4,394.3z M151.2,394.3
			c0,1.2,1.1,2,2.5,2c1.5,0,2.5-0.8,2.5-2c0-1.2-1-2-2.5-2C152.3,392.3,151.2,393.1,151.2,394.3z M162.4,390v17.2h-2V390H162.4z"/>
		<path d="M169.4,399.3c-1.6,0.1-3.2,0.1-4.5,0.1l-0.2-1.6c3.2,0,7.4-0.1,11-0.5l0.2,1.4c-1.4,0.2-2.9,0.4-4.4,0.5v3.3h-2V399.3z
			 M165.9,393.7c0-1.8,1.7-3,4.3-3c2.5,0,4.2,1.2,4.2,3s-1.7,3-4.2,3C167.7,396.7,165.9,395.5,165.9,393.7z M179.3,405.2v1.6H167
			v-5.1h2v3.5H179.3z M167.8,393.7c0,1,1,1.6,2.4,1.6c1.4,0,2.4-0.6,2.4-1.6c0-1-1-1.6-2.4-1.6C168.8,392.1,167.8,392.7,167.8,393.7
			z M177,400.1V390h2V403h-2v-1.6h-3.4v-1.4H177z"/>
		<path d="M187.9,402.3c1.5-0.1,3.1-0.2,4.6-0.4l0.1,1.4c-3.8,0.6-7.8,0.7-11,0.7l-0.2-1.6c1.4,0,2.9,0,4.6-0.1v-1.7
			c-1.9-0.3-3.2-1.5-3.2-3.1c0-1.9,1.7-3.2,4.2-3.2c2.5,0,4.2,1.3,4.2,3.2c0,1.7-1.3,2.8-3.2,3.1V402.3z M192.1,393.6h-10.4V392h4.2
			v-2h2v2h4.2V393.6z M186.9,399.3c1.4,0,2.3-0.6,2.3-1.7c0-1-0.9-1.7-2.3-1.7c-1.4,0-2.3,0.6-2.3,1.7
			C184.6,398.6,185.5,399.3,186.9,399.3z M195.4,390v17.2h-2V390H195.4z"/>
	</g>
</g>
<g>
	<path class="st5" d="M239.2,532.4H25.7c-6.6,0-12-5.4-12-12v-35.4c0-6.6,5.4-12,12-12h213.5c6.6,0,12,5.4,12,12v35.4
		C251.2,527,245.8,532.4,239.2,532.4z"/>
	<g>
		<path d="M89.3,506.7h-6.8v5.3h-2v-5.3h-6.8v-1.6h15.6V506.7z M87.7,503.6H75.8v-8h11.7v1.6h-9.7v1.7h9.3v1.5h-9.3v1.7h9.9V503.6z"
			/>
		<path d="M96.3,499.8c0,2.7,1.7,5.7,4.3,6.9l-1.1,1.5c-1.9-0.9-3.4-2.8-4.2-5c-0.8,2.4-2.3,4.4-4.3,5.4l-1.1-1.6
			c2.6-1.3,4.4-4.5,4.4-7.4v-1.7h-3.7v-1.6h9.3v1.6h-3.6V499.8z M106.3,503.2h-2.7v8.8h-2v-17.2h2v6.8h2.7V503.2z"/>
		<path d="M116.4,503.8c-2-0.6-3.4-2-4.2-3.7c-0.8,1.8-2.3,3.3-4.3,4l-1-1.5c2.7-0.9,4.2-3.2,4.2-5.5v-1.7h2v1.7
			c0,2.3,1.5,4.4,4.2,5.2L116.4,503.8z M109.8,505.4H121v6.3h-11.2V505.4z M111.7,510.2h7.4V507h-7.4V510.2z M121,494.8v9.7h-2v-9.7
			H121z"/>
		<path d="M123.5,506.7c3.1,0,7.4,0,11-0.6l0.1,1.4c-3.8,0.7-7.9,0.8-10.9,0.8L123.5,506.7z M133.6,500.1c0,2.4-2,4.1-4.7,4.1
			c-2.7,0-4.7-1.7-4.7-4.1s2-4.1,4.7-4.1C131.6,496,133.6,497.7,133.6,500.1z M126.2,500.1c0,1.5,1.2,2.5,2.7,2.5
			c1.6,0,2.8-1,2.8-2.5c0-1.5-1.2-2.5-2.8-2.5C127.4,497.7,126.2,498.6,126.2,500.1z M137.5,494.8V512h-2v-17.2H137.5z"/>
		<path d="M151.2,504.8c-1.5,0.3-3.1,0.5-4.6,0.6v6h-2v-5.9c-1.6,0.1-3.1,0.1-4.5,0.1l-0.2-1.6c3.1,0,7.4-0.1,11.1-0.6L151.2,504.8z
			 M141.1,499.1c0-2.1,1.9-3.6,4.4-3.6s4.4,1.5,4.4,3.6c0,2.1-1.9,3.6-4.4,3.6S141.1,501.3,141.1,499.1z M143,499.1
			c0,1.2,1.1,2,2.5,2c1.5,0,2.5-0.8,2.5-2c0-1.2-1-2-2.5-2C144,497.2,143,497.9,143,499.1z M154.1,494.8V512h-2v-17.2H154.1z"/>
		<path d="M161.2,504.1c-1.6,0.1-3.2,0.1-4.5,0.1l-0.2-1.6c3.2,0,7.4-0.1,11-0.5l0.2,1.4c-1.4,0.2-2.9,0.4-4.4,0.5v3.3h-2V504.1z
			 M157.7,498.5c0-1.8,1.7-3,4.3-3c2.5,0,4.2,1.2,4.2,3s-1.7,3-4.2,3C159.4,501.5,157.7,500.3,157.7,498.5z M171.1,510v1.6h-12.4
			v-5.1h2v3.5H171.1z M159.5,498.5c0,1,1,1.6,2.4,1.6c1.4,0,2.4-0.6,2.4-1.6c0-1-1-1.6-2.4-1.6C160.5,496.9,159.5,497.5,159.5,498.5
			z M168.7,504.9v-10.1h2v13.1h-2v-1.6h-3.4v-1.4H168.7z"/>
		<path d="M179.6,507.1c1.5-0.1,3.1-0.2,4.6-0.4l0.1,1.4c-3.8,0.6-7.8,0.7-11,0.7l-0.2-1.6c1.4,0,2.9,0,4.6-0.1v-1.7
			c-1.9-0.3-3.2-1.5-3.2-3.1c0-1.9,1.7-3.2,4.2-3.2c2.5,0,4.2,1.3,4.2,3.2c0,1.7-1.3,2.8-3.2,3.1V507.1z M183.8,498.4h-10.4v-1.6
			h4.2v-2h2v2h4.2V498.4z M178.6,504.1c1.4,0,2.3-0.6,2.3-1.7c0-1-0.9-1.7-2.3-1.7c-1.4,0-2.3,0.6-2.3,1.7
			C176.3,503.5,177.3,504.1,178.6,504.1z M187.1,494.8v17.2h-2v-17.2H187.1z"/>
	</g>
</g>
<g>
	<path class="st5" d="M715.4,586.5h-221c-6.6,0-12-5.4-12-12v-35.4c0-6.6,5.4-12,12-12h221c6.6,0,12,5.4,12,12v35.4
		C727.4,581.1,722,586.5,715.4,586.5z"/>
	<g>
		<path d="M597.6,549.9c0,4.4-2.9,7.6-8,8.9l-0.8-1.6c4-1.1,6.3-3.2,6.7-5.8h-5.9v-1.6H597.6z M591.3,559.3h11v6.5h-11V559.3z
			 M593.3,564.2h7.1v-3.4h-7.1V564.2z M604.7,554.5h-2.4v4.1h-2v-9.7h2v4h2.4V554.5z"/>
		<path d="M611.4,553.1c0,3.1,1.6,6.2,4.2,7.4l-1.2,1.6c-1.8-0.9-3.2-2.8-4-5.1c-0.7,2.4-2.2,4.4-4.1,5.4l-1.2-1.6
			c2.7-1.3,4.3-4.6,4.3-7.7v-2.8h2V553.1z M621.4,557.3h-2.7v8.7h-2v-17.2h2v6.8h2.7V557.3z"/>
	</g>
</g>
<g>
	<path class="st6" d="M466,1018.4H251.1c-6.6,0-12-5.4-12-12V971c0-6.6,5.4-12,12-12H466c6.6,0,12,5.4,12,12v35.4
		C478,1013,472.6,1018.4,466,1018.4z"/>
	<g>
		<path d="M318.4,985.3c-1.1,2.7-3.6,4.7-7.3,5.7l-0.8-1.6c4-1.1,6.2-3.2,6.6-5.9h-5.7V982h7.8c0,0.6-0.1,1.2-0.2,1.7h3.5v-2.9h2
			v10.1h-2v-2h-4.2v-1.6h4.2v-2H318.4z M324.5,994.5c0,2.1-2.3,3.4-5.7,3.4s-5.7-1.3-5.7-3.4c0-2.1,2.2-3.4,5.7-3.4
			S324.5,992.4,324.5,994.5z M322.6,994.5c0-1.2-1.5-1.8-3.8-1.8c-2.3,0-3.8,0.7-3.8,1.8c0,1.2,1.5,1.9,3.8,1.9
			C321.1,996.3,322.6,995.7,322.6,994.5z"/>
		<path d="M334.8,988.6c-0.8,0.9-2,1.4-3.4,1.4c-2.6,0-4.5-1.7-4.5-4.1c0-2.4,1.9-4.1,4.5-4.1c1.4,0,2.6,0.5,3.4,1.4h4.1v-2.4h2
			v10.1h-2v-2.3H334.8z M331.4,988.4c1.5,0,2.6-1,2.6-2.5c0-1.5-1.1-2.5-2.6-2.5c-1.5,0-2.6,1-2.6,2.5
			C328.8,987.4,329.9,988.4,331.4,988.4z M341,994.6c0,2.1-2.2,3.3-5.8,3.3c-3.6,0-5.8-1.2-5.8-3.3c0-2.1,2.2-3.3,5.8-3.3
			C338.8,991.3,341,992.5,341,994.6z M339,994.6c0-1.1-1.4-1.8-3.9-1.8c-2.4,0-3.9,0.6-3.9,1.8c0,1.2,1.4,1.8,3.9,1.8
			C337.6,996.4,339,995.8,339,994.6z M335.7,984.7c0.1,0.4,0.2,0.7,0.2,1.2s-0.1,0.8-0.2,1.2h3.3v-2.3H335.7z"/>
		<path d="M353.8,990.4c-3.6,0.6-7.6,0.7-10.6,0.7l-0.2-1.6c1,0,2.2,0,3.4,0V986h1.9v3.5c1.8-0.1,3.6-0.2,5.3-0.5L353.8,990.4z
			 M350.4,987.9c0.3-1.8,0.4-3.2,0.4-4.3h-6.7v-1.6h8.6v1c0,1.2,0,2.8-0.4,5.1L350.4,987.9z M347.6,996h9.7v1.6h-11.7v-5.1h2V996z
			 M359,986.2v1.6h-2.3v5.8h-2v-12.9h2v5.4H359z"/>
		<path d="M362.7,992.3c2.7,0,5.1-0.2,7.8-0.6l0.2,1.6c-2.9,0.5-5.5,0.6-8.5,0.6h-1.5v-6.8h6v-3.2h-6v-1.6h8v6.4h-6V992.3z
			 M373.9,980.8V998h-2v-17.2H373.9z"/>
		<path d="M391.8,990v1.6h-15.6V990h6.8v-1.7h-4.8v-6.9h1.9v1.9h7.6v-1.9h1.9v6.9H385v1.7H391.8z M380.2,996h9.9v1.6h-11.8v-4.8h2
			V996z M380.2,986.8h7.6v-1.9h-7.6V986.8z"/>
		<path d="M408.4,992.4h-6.9v5.6h-2v-5.6h-6.7v-1.6h15.6V992.4z M406.4,989h-11.8v-7.5h2v2.2h7.8v-2.2h2V989z M404.5,985.2h-7.8v2.2
			h7.8V985.2z"/>
	</g>
</g>
<g>
	<path class="st6" d="M472.1,1169.6H257.2c-6.6,0-12-5.4-12-12v-35.4c0-6.6,5.4-12,12-12h214.9c6.6,0,12,5.4,12,12v35.4
		C484.1,1164.2,478.7,1169.6,472.1,1169.6z"/>
	<g>
		<path d="M338.6,1140.6v1.6h-6.6v3.2h-2v-3.2h-7v-1.6H338.6z M323.8,1138c3.2-0.4,5.5-2,5.6-3.7h-5v-1.6h12.7v1.6h-5
			c0.2,1.7,2.4,3.3,5.6,3.7l-0.7,1.6c-3-0.4-5.3-1.7-6.2-3.6c-0.9,1.9-3.2,3.3-6.2,3.6L323.8,1138z M326.9,1147.2h10v1.6h-11.9v-4.9
			h2V1147.2z"/>
		<path d="M353.8,1131.9v9.4h-2v-3.7h-3.6v3.1h-7.9v-8h1.9v2.4h4v-2.4h1.9v3.2h3.6v-4.1L353.8,1131.9z M346.3,1136.8h-4v2.4h4
			V1136.8z M351.8,1142.1h2v6.7h-11.2v-6.7h1.9v1.8h7.3V1142.1z M351.8,1145.5h-7.3v1.8h7.3V1145.5z"/>
		<path d="M364.8,1133c0,4.4-2.9,7.6-8,8.9l-0.8-1.6c4-1.1,6.3-3.2,6.7-5.8h-5.9v-1.6H364.8z M358.5,1142.4h11v6.5h-11V1142.4z
			 M360.5,1147.3h7.1v-3.4h-7.1V1147.3z M371.9,1137.5h-2.4v4.1h-2v-9.7h2v4h2.4V1137.5z"/>
		<path d="M378.9,1136.2c0,3.2,1.7,6.3,4.4,7.5l-1.1,1.6c-2-0.9-3.5-2.8-4.3-5.1c-0.8,2.5-2.3,4.5-4.4,5.5l-1.2-1.6
			c2.7-1.2,4.5-4.5,4.5-7.8v-2.8h2V1136.2z M386.7,1131.9v17.2h-2v-17.2H386.7z"/>
		<path d="M394,1141.7c-2.6,0-4.6-1.8-4.6-4.3c0-2.5,2-4.3,4.6-4.3c2.6,0,4.5,1.8,4.5,4.3C398.6,1139.9,396.6,1141.7,394,1141.7z
			 M394,1140c1.5,0,2.6-1,2.6-2.6c0-1.6-1.1-2.6-2.6-2.6c-1.5,0-2.6,1-2.6,2.6C391.4,1138.9,392.5,1140,394,1140z M403.8,1147.2v1.6
			h-11.7v-5.6h2v4H403.8z M403.3,1144.4h-2v-12.5h2V1144.4z"/>
	</g>
</g>
<g>
	<path class="st6" d="M466,867.3H251.1c-6.6,0-12-5.4-12-12v-35.4c0-6.6,5.4-12,12-12H466c6.6,0,12,5.4,12,12v35.4
		C478,861.9,472.6,867.3,466,867.3z"/>
	<g>
		<path d="M348.2,838.2v1.6h-6.6v3.2h-2v-3.2h-6.9v-1.6H348.2z M334.3,833.5c0-2.1,2.4-3.5,6.1-3.5c3.7,0,6.1,1.3,6.1,3.5
			s-2.4,3.5-6.1,3.5C336.7,837,334.3,835.7,334.3,833.5z M336.5,844.9h10v1.6h-11.9v-5.1h2V844.9z M336.4,833.5c0,1.2,1.6,1.9,4,1.9
			c2.4,0,4-0.7,4-1.9s-1.6-1.9-4-1.9C338,831.6,336.4,832.3,336.4,833.5z"/>
		<path d="M364.7,838v1.6h-15.5V838h3.7v-2.3c-1.3-0.6-2-1.4-2-2.5c0-2,2.4-3.2,6.1-3.2c3.7,0,6.1,1.2,6.1,3.2c0,1.1-0.8,2-2.1,2.6
			v2.3H364.7z M362.8,843.7c0,2-2.2,3.1-5.9,3.1c-3.7,0-5.9-1.1-5.9-3.1c0-2,2.2-3.1,5.9-3.1C360.6,840.6,362.8,841.8,362.8,843.7z
			 M352.8,833.1c0,1.1,1.5,1.7,4.1,1.7c2.5,0,4.1-0.6,4.1-1.7c0-1.1-1.5-1.7-4.1-1.7C354.3,831.4,352.8,832,352.8,833.1z
			 M360.8,843.7c0-1-1.4-1.6-3.9-1.6c-2.5,0-3.9,0.6-3.9,1.6c0,1,1.4,1.6,3.9,1.6C359.4,845.3,360.8,844.8,360.8,843.7z M354.8,838
			h4.2v-1.7c-0.6,0.1-1.3,0.2-2.1,0.2s-1.5-0.1-2.1-0.2V838z"/>
		<path d="M381.2,838.9v1.6h-15.6v-1.6h6.8v-1.7h-4.7v-6.9h1.9v1.9h7.6v-1.9h1.9v6.9h-4.8v1.7H381.2z M369.6,844.9h9.9v1.6h-11.8
			v-4.8h2V844.9z M369.6,835.7h7.6v-1.9h-7.6V835.7z"/>
		<path d="M397.8,841.2h-6.9v5.6h-2v-5.6h-6.7v-1.6h15.6V841.2z M395.8,837.8h-11.8v-7.5h2v2.2h7.8v-2.2h2V837.8z M393.9,834H386
			v2.2h7.8V834z"/>
	</g>
</g>
<g>
	<path class="st6" d="M744.7,837.6h-156c-6.6,0-12-5.4-12-12v-35.4c0-6.6,5.4-12,12-12h156c6.6,0,12,5.4,12,12v35.4
		C756.7,832.2,751.3,837.6,744.7,837.6z"/>
	<g>
		<path d="M657.9,808.5v1.6h-6.6v3.2h-2v-3.2h-6.9v-1.6H657.9z M644.1,803.8c0-2.1,2.4-3.5,6.1-3.5c3.7,0,6.1,1.3,6.1,3.5
			c0,2.1-2.4,3.5-6.1,3.5C646.5,807.3,644.1,806,644.1,803.8z M646.3,815.2h10v1.6h-11.9v-5.1h2V815.2z M646.1,803.8
			c0,1.2,1.6,1.9,4,1.9c2.4,0,4-0.7,4-1.9s-1.6-1.9-4-1.9C647.7,801.9,646.1,802.6,646.1,803.8z"/>
		<path d="M674.4,808.3v1.6h-15.5v-1.6h3.7V806c-1.3-0.6-2-1.4-2-2.5c0-2,2.4-3.2,6.1-3.2c3.7,0,6.1,1.2,6.1,3.2
			c0,1.1-0.8,2-2.1,2.6v2.3H674.4z M672.5,814c0,2-2.2,3.1-5.9,3.1c-3.7,0-5.9-1.1-5.9-3.1c0-2,2.2-3.1,5.9-3.1
			C670.3,810.9,672.5,812.1,672.5,814z M662.6,803.5c0,1.1,1.5,1.7,4.1,1.7c2.5,0,4.1-0.6,4.1-1.7s-1.5-1.7-4.1-1.7
			C664.1,801.8,662.6,802.4,662.6,803.5z M670.6,814c0-1-1.4-1.6-3.9-1.6s-3.9,0.6-3.9,1.6c0,1,1.4,1.6,3.9,1.6
			S670.6,815.1,670.6,814z M664.6,808.3h4.2v-1.7c-0.6,0.1-1.3,0.2-2.1,0.2s-1.5-0.1-2.1-0.2V808.3z"/>
		<path d="M686.1,808.8c-2.5,0.4-4.6,0.5-8.2,0.5h-1.4v-8.3h8.2v1.6h-6.3v1.8h5.8v1.5h-5.8v1.9c3.3,0,5.3-0.1,7.5-0.5L686.1,808.8z
			 M678.4,811h11.2v5.9h-11.2V811z M680.3,815.3h7.4v-2.8h-7.4V815.3z M689.6,800v10.2h-2V800H689.6z"/>
	</g>
</g>
<g>
	<path class="st6" d="M744.7,906.2h-156c-6.6,0-12-5.4-12-12v-35.4c0-6.6,5.4-12,12-12h156c6.6,0,12,5.4,12,12v35.4
		C756.7,900.8,751.3,906.2,744.7,906.2z"/>
	<g>
		<path d="M641.4,877.1v1.6h-6.7v3.2h-2v-3.2h-6.9v-1.6H641.4z M627.5,872.4c0-2.1,2.4-3.5,6.1-3.5c3.7,0,6.1,1.3,6.1,3.5
			s-2.4,3.5-6.1,3.5C629.9,875.9,627.5,874.6,627.5,872.4z M629.7,883.8h10v1.6h-11.9v-5.1h2V883.8z M629.6,872.4
			c0,1.2,1.6,1.9,4,1.9c2.4,0,4-0.7,4-1.9s-1.6-1.9-4-1.9C631.2,870.5,629.6,871.2,629.6,872.4z"/>
		<path d="M657.9,876.9v1.6h-15.5v-1.6h3.7v-2.3c-1.3-0.6-2-1.4-2-2.5c0-2,2.4-3.2,6.1-3.2c3.7,0,6.1,1.2,6.1,3.2
			c0,1.1-0.8,2-2.1,2.6v2.3H657.9z M656,882.6c0,2-2.2,3.1-5.9,3.1c-3.7,0-5.9-1.1-5.9-3.1c0-2,2.2-3.1,5.9-3.1
			C653.8,879.5,656,880.7,656,882.6z M646,872.1c0,1.1,1.5,1.7,4.1,1.7c2.5,0,4.1-0.6,4.1-1.7c0-1.1-1.5-1.7-4.1-1.7
			C647.6,870.4,646,871,646,872.1z M654,882.6c0-1-1.4-1.6-3.9-1.6c-2.5,0-3.9,0.6-3.9,1.6c0,1,1.4,1.6,3.9,1.6
			C652.6,884.2,654,883.7,654,882.6z M648,876.9h4.2v-1.7c-0.6,0.1-1.3,0.2-2.1,0.2s-1.5-0.1-2.1-0.2V876.9z"/>
		<path d="M665.3,873.5c0,2.8,1.8,5.8,4.4,7l-1.1,1.5c-2-0.9-3.5-2.7-4.3-5c-0.8,2.4-2.3,4.4-4.3,5.4l-1.1-1.6
			c2.7-1.2,4.4-4.4,4.4-7.4v-1.6h-3.8v-1.6h9.6v1.6h-3.8V873.5z M673,868.5v17.2h-2v-17.2H673z"/>
		<path d="M680.2,877.8c-1.6,0.1-3.2,0.1-4.5,0.1l-0.2-1.6c3.2,0,7.4-0.1,11-0.5l0.2,1.4c-1.4,0.2-2.9,0.4-4.4,0.5v3.3h-2V877.8z
			 M676.7,872.2c0-1.8,1.7-3,4.3-3c2.5,0,4.2,1.2,4.2,3c0,1.8-1.7,3-4.2,3C678.4,875.2,676.7,874,676.7,872.2z M690.1,883.8v1.6
			h-12.4v-5.1h2v3.5H690.1z M678.5,872.2c0,1,1,1.6,2.4,1.6c1.4,0,2.4-0.6,2.4-1.6s-1-1.6-2.4-1.6
			C679.5,870.6,678.5,871.2,678.5,872.2z M687.7,878.6v-10.1h2v13.1h-2V880h-3.4v-1.4H687.7z"/>
		<path d="M702.6,877.4c-2.5,0.4-4.6,0.5-8.2,0.5H693v-8.3h8.2v1.6h-6.3v1.8h5.8v1.5h-5.8v1.9c3.3,0,5.3-0.1,7.5-0.5L702.6,877.4z
			 M694.9,879.6h11.2v5.9h-11.2V879.6z M696.8,883.9h7.4v-2.8h-7.4V883.9z M706.1,868.5v10.2h-2v-10.2H706.1z"/>
	</g>
</g>
<g>
	<path class="st6" d="M744.7,985.9h-156c-6.6,0-12-5.4-12-12v-35.4c0-6.6,5.4-12,12-12h156c6.6,0,12,5.4,12,12v35.4
		C756.7,980.5,751.3,985.9,744.7,985.9z"/>
	<g>
		<path d="M634.1,952.8c-1.1,2.7-3.6,4.7-7.3,5.7l-0.8-1.6c4-1.1,6.2-3.2,6.6-5.9H627v-1.6h7.8c0,0.6-0.1,1.2-0.2,1.7h3.5v-2.9h2
			v10.1h-2v-2H634v-1.6h4.2v-2H634.1z M640.2,962c0,2.1-2.3,3.4-5.7,3.4s-5.7-1.3-5.7-3.4c0-2.1,2.2-3.4,5.7-3.4
			S640.2,959.9,640.2,962z M638.3,962c0-1.2-1.5-1.8-3.8-1.8c-2.3,0-3.8,0.7-3.8,1.8c0,1.2,1.5,1.9,3.8,1.9
			C636.8,963.8,638.3,963.2,638.3,962z"/>
		<path d="M650.5,956.1c-0.8,0.9-2,1.4-3.4,1.4c-2.6,0-4.5-1.7-4.5-4.1c0-2.4,1.9-4.1,4.5-4.1c1.4,0,2.6,0.5,3.4,1.4h4.1v-2.4h2
			v10.1h-2v-2.3H650.5z M647.1,955.9c1.5,0,2.6-1,2.6-2.5c0-1.5-1.1-2.5-2.6-2.5c-1.5,0-2.6,1-2.6,2.5
			C644.5,954.9,645.6,955.9,647.1,955.9z M656.7,962.1c0,2.1-2.2,3.3-5.8,3.3c-3.6,0-5.8-1.2-5.8-3.3c0-2.1,2.2-3.3,5.8-3.3
			C654.5,958.8,656.7,960,656.7,962.1z M654.7,962.1c0-1.1-1.4-1.8-3.9-1.8c-2.4,0-3.9,0.6-3.9,1.8c0,1.2,1.4,1.8,3.9,1.8
			C653.3,963.9,654.7,963.3,654.7,962.1z M651.4,952.2c0.1,0.4,0.2,0.7,0.2,1.2s-0.1,0.8-0.2,1.2h3.3v-2.3H651.4z"/>
		<path d="M669.5,957.9c-3.6,0.6-7.6,0.7-10.6,0.7l-0.2-1.6c1,0,2.2,0,3.4,0v-3.5h1.9v3.5c1.8-0.1,3.6-0.2,5.3-0.5L669.5,957.9z
			 M666.1,955.4c0.3-1.8,0.4-3.2,0.4-4.3h-6.7v-1.6h8.6v1c0,1.2,0,2.8-0.4,5.1L666.1,955.4z M663.3,963.5h9.7v1.6h-11.7V960h2V963.5
			z M674.7,953.7v1.6h-2.3v5.8h-2v-12.9h2v5.4H674.7z"/>
		<path d="M678.4,959.8c2.7,0,5.1-0.2,7.8-0.6l0.2,1.6c-2.9,0.5-5.5,0.6-8.5,0.6h-1.5v-6.8h6v-3.2h-6v-1.6h8v6.4h-6V959.8z
			 M689.6,948.3v17.2h-2v-17.2H689.6z"/>
		<path d="M702.6,957.1c-2.5,0.4-4.6,0.5-8.2,0.5H693v-8.3h8.2v1.6h-6.3v1.8h5.8v1.5h-5.8v1.9c3.3,0,5.3-0.1,7.5-0.5L702.6,957.1z
			 M694.9,959.3h11.2v5.9h-11.2V959.3z M696.8,963.7h7.4v-2.8h-7.4V963.7z M706.1,948.3v10.2h-2v-10.2H706.1z"/>
	</g>
</g>
<g>
	<path class="st6" d="M744.7,1054.5h-156c-6.6,0-12-5.4-12-12v-35.4c0-6.6,5.4-12,12-12h156c6.6,0,12,5.4,12,12v35.4
		C756.7,1049.1,751.3,1054.5,744.7,1054.5z"/>
	<g>
		<path d="M620.5,1028.4c2.7,0,5.1-0.2,7.8-0.6l0.2,1.6c-2.9,0.5-5.5,0.6-8.5,0.6h-1.5v-6.8h6v-3.2h-6v-1.6h8v6.4h-6V1028.4z
			 M631.8,1016.9v17.2h-2v-17.2H631.8z"/>
		<path d="M649.7,1030.2v1.6h-15.5v-1.6H649.7z M648.2,1026.9c-2.8-0.6-5.2-2.4-6.3-4.7c-1.1,2.4-3.5,4.1-6.3,4.7l-0.8-1.6
			c3.4-0.6,6.1-3.3,6.1-6v-1.3h2.1v1.3c0,2.7,2.8,5.4,6.1,6L648.2,1026.9z"/>
		<path d="M666.2,1030.2v1.6h-15.5v-1.6H666.2z M662.5,1023.3c0-0.9,0-1.8,0-2.7v-0.5h-10v-1.6h11.9v2.1c0,2.5,0,4.8-0.8,8.5
			l-1.9-0.2c0.4-1.5,0.6-2.9,0.6-4.1l-10.1,0.5l-0.2-1.6L662.5,1023.3z"/>
		<path d="M677.8,1026.5c-3.6,0.6-7.6,0.7-10.6,0.7l-0.2-1.6c1,0,2.2,0,3.4,0v-3.5h1.9v3.5c1.8-0.1,3.6-0.2,5.3-0.5L677.8,1026.5z
			 M674.3,1024c0.3-1.8,0.4-3.2,0.4-4.3H668v-1.6h8.6v1c0,1.2,0,2.8-0.4,5.1L674.3,1024z M671.6,1032.1h9.7v1.6h-11.7v-5.1h2V1032.1
			z M683,1022.3v1.6h-2.3v5.8h-2v-12.9h2v5.4H683z"/>
		<path d="M686.7,1028.4c2.7,0,5.1-0.2,7.8-0.6l0.2,1.6c-2.9,0.5-5.5,0.6-8.5,0.6h-1.5v-6.8h6v-3.2h-6v-1.6h8v6.4h-6V1028.4z
			 M697.9,1016.9v17.2h-2v-17.2H697.9z"/>
		<path d="M710.9,1025.7c-2.5,0.4-4.6,0.5-8.2,0.5h-1.4v-8.3h8.2v1.6h-6.3v1.8h5.8v1.5h-5.8v1.9c3.3,0,5.3-0.1,7.5-0.5L710.9,1025.7
			z M703.2,1027.9h11.2v5.9h-11.2V1027.9z M705.1,1032.3h7.4v-2.8h-7.4V1032.3z M714.4,1016.9v10.2h-2v-10.2H714.4z"/>
	</g>
</g>
<g>
	<path class="st5" d="M239.2,637.2H25.7c-6.6,0-12-5.4-12-12v-35.4c0-6.6,5.4-12,12-12h213.5c6.6,0,12,5.4,12,12v35.4
		C251.2,631.8,245.8,637.2,239.2,637.2z"/>
	<g>
		<path d="M56.7,608.7c-2-0.6-3.4-1.9-4.2-3.5c-0.8,1.7-2.2,3.1-4.3,3.8l-1-1.5c2.7-0.8,4.3-2.9,4.3-5.1v-0.1h-3.7v-1.6h9.4v1.6
			h-3.7v0.1c0,2.1,1.6,4.1,4.2,4.9L56.7,608.7z M59.3,609.7h1.9v6.9H50v-6.9h1.9v1.8h7.3V609.7z M59.3,613.1h-7.3v1.9h7.3V613.1z
			 M61.2,599.6v9.3h-2v-9.3H61.2z"/>
		<path d="M73.8,602.8H63.6v-1.6h4.1v-1.8h2v1.8h4.1V602.8z M68.7,609.5c-2.5,0-4.2-1.2-4.2-3c0-1.8,1.7-3,4.2-3
			c2.5,0,4.2,1.2,4.2,3C72.8,608.3,71.2,609.5,68.7,609.5z M75.1,610.3H77v6.2H66v-6.2H68v1.6h7.1V610.3z M68.7,608
			c1.4,0,2.3-0.6,2.3-1.6c0-1-0.9-1.6-2.3-1.6c-1.4,0-2.3,0.6-2.3,1.6C66.4,607.4,67.3,608,68.7,608z M75.1,613.4H68v1.6h7.1V613.4z
			 M79.4,605.5H77v4.1h-2v-10h2v4.3h2.4V605.5z"/>
		<path d="M95.7,611.5h-6.8v5.3h-2v-5.3h-6.8v-1.6h15.6V611.5z M94,608.4H82.1v-8h11.7v1.6h-9.7v1.7h9.3v1.5h-9.3v1.7H94V608.4z"/>
		<path d="M102.7,604.6c0,2.7,1.7,5.7,4.3,6.9l-1.1,1.5c-1.9-0.9-3.4-2.8-4.2-5c-0.8,2.4-2.3,4.4-4.3,5.4l-1.1-1.6
			c2.6-1.3,4.4-4.5,4.4-7.4v-1.7H97v-1.6h9.3v1.6h-3.6V604.6z M112.6,608h-2.7v8.8h-2v-17.2h2v6.8h2.7V608z"/>
		<path d="M118.4,604c0,3.1,1.1,5.9,3.6,7.2l-1.1,1.5c-1.6-0.9-2.7-2.5-3.3-4.4c-0.6,2.2-1.7,3.9-3.4,4.9l-1.2-1.5
			c2.5-1.4,3.6-4.4,3.6-7.8v-1h-3.1v-1.6h7.9v1.6h-2.9V604z M127.9,599.6v17.2h-1.9V608h-1.9v8h-1.8v-16.1h1.8v6.5h1.9v-6.8H127.9z"
			/>
		<path d="M138.8,609.6c-1.9-0.7-3.3-2-4-3.7c-0.7,1.9-2.2,3.3-4.2,4.1l-1.1-1.5c2.8-0.9,4.2-3.2,4.2-5.8v-2h2v2
			c0,2.3,1.5,4.4,4.1,5.3L138.8,609.6z M134.2,614.8h9.6v1.6h-11.5V611h2V614.8z M145.6,604.7v1.6h-2.4v5.9h-2v-12.7h2v5.1H145.6z"
			/>
		<path d="M156.3,608.7c-3.2,0.6-7,0.6-9.8,0.6l-0.2-1.6c0.6,0,1.3,0,2,0v-5.3h-1.6v-1.6h9v1.6h-1.5v5c0.7,0,1.3-0.1,1.9-0.2
			L156.3,608.7z M160.5,613.6c0,2-2.2,3.1-5.8,3.1s-5.8-1.2-5.8-3.1c0-2,2.2-3.2,5.8-3.2S160.5,611.6,160.5,613.6z M150.2,607.7
			c0.7,0,1.4,0,2.2-0.1v-5.2h-2.2V607.7z M158.6,613.6c0-1.1-1.4-1.7-3.8-1.7c-2.5,0-3.8,0.6-3.8,1.7c0,1,1.4,1.6,3.8,1.6
			C157.2,615.3,158.6,614.7,158.6,613.6z M158.5,607.2H156v-1.6h2.5v-1.6H156v-1.6h2.5v-2.9h2v10.5h-2V607.2z"/>
		<path d="M171.6,601.4c0,5-2.1,9.4-7.7,12.2l-1.1-1.5c4.2-2.1,6.5-5.2,6.9-9.1h-6v-1.6H171.6z M178.7,608h-2.6v8.7h-2v-17.2h2v6.8
			h2.6V608z"/>
		<path d="M190.6,609.6c-1.5,0.3-3.1,0.5-4.6,0.6v6h-2v-5.9c-1.6,0.1-3.1,0.1-4.5,0.1l-0.2-1.6c3.1,0,7.4-0.1,11.1-0.6L190.6,609.6z
			 M180.5,603.9c0-2.1,1.9-3.6,4.4-3.6s4.4,1.5,4.4,3.6c0,2.1-1.9,3.6-4.4,3.6S180.5,606.1,180.5,603.9z M182.4,603.9
			c0,1.2,1.1,2,2.5,2c1.5,0,2.5-0.8,2.5-2c0-1.2-1-2-2.5-2C183.4,602,182.4,602.7,182.4,603.9z M193.5,599.6v17.2h-2v-17.2H193.5z"
			/>
		<path d="M200.5,608.9c-1.6,0.1-3.2,0.1-4.5,0.1l-0.2-1.6c3.2,0,7.4-0.1,11-0.5l0.2,1.4c-1.4,0.2-2.9,0.4-4.4,0.5v3.3h-2V608.9z
			 M197.1,603.3c0-1.8,1.7-3,4.3-3c2.5,0,4.2,1.2,4.2,3c0,1.8-1.7,3-4.2,3C198.8,606.3,197.1,605.1,197.1,603.3z M210.5,614.8v1.6
			h-12.4v-5.1h2v3.5H210.5z M198.9,603.3c0,1,1,1.6,2.4,1.6c1.4,0,2.4-0.6,2.4-1.6s-1-1.6-2.4-1.6
			C199.9,601.7,198.9,602.3,198.9,603.3z M208.1,609.7v-10.1h2v13.1h-2V611h-3.4v-1.4H208.1z"/>
		<path d="M219,612c1.5-0.1,3.1-0.2,4.6-0.4l0.1,1.4c-3.8,0.6-7.8,0.7-11,0.7l-0.2-1.6c1.4,0,2.9,0,4.6-0.1v-1.7
			c-1.9-0.3-3.2-1.5-3.2-3.1c0-1.9,1.7-3.2,4.2-3.2c2.5,0,4.2,1.3,4.2,3.2c0,1.7-1.3,2.8-3.2,3.1V612z M223.2,603.2h-10.4v-1.6h4.2
			v-2h2v2h4.2V603.2z M218,608.9c1.4,0,2.3-0.6,2.3-1.7c0-1-0.9-1.7-2.3-1.7c-1.4,0-2.3,0.6-2.3,1.7
			C215.7,608.3,216.6,608.9,218,608.9z M226.5,599.6v17.2h-2v-17.2H226.5z"/>
	</g>
</g>
<g>
	<path class="st5" d="M239.2,742H25.7c-6.6,0-12-5.4-12-12v-35.4c0-6.6,5.4-12,12-12h213.5c6.6,0,12,5.4,12,12V730
		C251.2,736.6,245.8,742,239.2,742z"/>
	<g>
		<path d="M95.2,714.1c-2.6,0-4.6-1.8-4.6-4.3c0-2.5,2-4.3,4.6-4.3c2.6,0,4.5,1.8,4.5,4.3C99.8,712.3,97.8,714.1,95.2,714.1z
			 M95.2,712.4c1.5,0,2.6-1,2.6-2.6c0-1.6-1.1-2.6-2.6-2.6c-1.5,0-2.6,1-2.6,2.6C92.6,711.4,93.7,712.4,95.2,712.4z M105,719.6v1.6
			H93.3v-5.6h2v4H105z M104.5,716.9h-2v-12.5h2V716.9z"/>
		<path d="M112.9,708.6c0,3.1,1.6,6.2,4.2,7.4l-1.2,1.6c-1.8-0.9-3.2-2.8-4-5.1c-0.7,2.4-2.2,4.4-4.1,5.4l-1.2-1.6
			c2.7-1.3,4.3-4.6,4.3-7.7v-2.8h2V708.6z M122.8,712.8h-2.7v8.7h-2v-17.2h2v6.8h2.7V712.8z"/>
		<path d="M134.7,714.4c-1.5,0.3-3.1,0.5-4.6,0.6v6h-2v-5.9c-1.6,0.1-3.1,0.1-4.5,0.1l-0.2-1.6c3.1,0,7.4-0.1,11.1-0.6L134.7,714.4z
			 M124.6,708.7c0-2.1,1.9-3.6,4.4-3.6c2.6,0,4.4,1.5,4.4,3.6c0,2.1-1.9,3.6-4.4,3.6C126.4,712.4,124.6,710.9,124.6,708.7z
			 M126.4,708.7c0,1.2,1.1,2,2.5,2c1.5,0,2.5-0.8,2.5-2c0-1.2-1-2-2.5-2C127.5,706.8,126.4,707.5,126.4,708.7z M137.6,704.4v17.2h-2
			v-17.2H137.6z"/>
		<path d="M144.6,713.7c-1.6,0.1-3.2,0.1-4.5,0.1l-0.2-1.6c3.2,0,7.4-0.1,11-0.5l0.2,1.4c-1.4,0.2-2.9,0.4-4.4,0.5v3.3h-2V713.7z
			 M141.2,708.1c0-1.8,1.7-3,4.3-3c2.5,0,4.2,1.2,4.2,3c0,1.8-1.7,3-4.2,3C142.9,711.1,141.2,709.9,141.2,708.1z M154.5,719.6v1.6
			h-12.4v-5.1h2v3.5H154.5z M143,708.1c0,1,1,1.6,2.4,1.6c1.4,0,2.4-0.6,2.4-1.6c0-1-1-1.6-2.4-1.6C144,706.5,143,707.1,143,708.1z
			 M152.2,714.5v-10.1h2v13.1h-2v-1.6h-3.4v-1.4H152.2z"/>
		<path d="M163.1,716.8c1.5-0.1,3.1-0.2,4.6-0.4l0.1,1.4c-3.8,0.6-7.8,0.7-11,0.7l-0.2-1.6c1.4,0,2.9,0,4.6-0.1v-1.7
			c-1.9-0.3-3.2-1.5-3.2-3.1c0-1.9,1.7-3.2,4.2-3.2c2.5,0,4.2,1.3,4.2,3.2c0,1.7-1.3,2.8-3.2,3.1V716.8z M167.3,708h-10.4v-1.6h4.2
			v-2h2v2h4.2V708z M162.1,713.7c1.4,0,2.3-0.6,2.3-1.7c0-1-1-1.7-2.3-1.7c-1.4,0-2.3,0.6-2.3,1.7
			C159.8,713.1,160.7,713.7,162.1,713.7z M170.6,704.4v17.2h-2v-17.2H170.6z"/>
	</g>
</g>
<polyline class="st0" points="576.7,874 512.3,874 512.3,810.2 576.7,810.2 "/>
<polyline class="st0" points="576.7,1022.9 512.3,1022.9 512.3,959 576.7,959 "/>
<circle class="st2" cx="363.9" cy="178.8" r="3.8"/>
<circle class="st2" cx="482.4" cy="556.8" r="3.8"/>
<circle class="st2" cx="363.9" cy="807.9" r="3.8"/>
<circle class="st2" cx="363.9" cy="959" r="3.8"/>
<circle class="st2" cx="363.9" cy="1110.2" r="3.8"/>
<line class="st0" x1="478" y1="838.4" x2="512.3" y2="838.4"/>
<line class="st0" x1="478" y1="985.9" x2="512.3" y2="985.9"/>
<line class="st0" x1="251.2" y1="396.3" x2="363.9" y2="396.3"/>
<line class="st0" x1="251.2" y1="502.7" x2="363.9" y2="502.7"/>
<line class="st0" x1="251.2" y1="609.2" x2="363.9" y2="609.2"/>
<line class="st0" x1="251.2" y1="715.6" x2="363.9" y2="715.6"/>
<line class="st0" x1="482.4" y1="556.8" x2="363.9" y2="556.8"/>
<circle class="st2" cx="251.2" cy="715.6" r="3.8"/>
<circle class="st2" cx="251.2" cy="609" r="3.8"/>
<circle class="st2" cx="251.2" cy="502.7" r="3.8"/>
<circle class="st2" cx="251.2" cy="396.3" r="3.8"/>
</svg>
