<?xml version="1.0" encoding="utf-8"?>
<!-- Generator: Adobe Illustrator 26.5.3, SVG Export Plug-In . SVG Version: 6.00 Build 0)  -->
<svg version="1.1" id="레이어_1" xmlns="http://www.w3.org/2000/svg" xmlns:xlink="http://www.w3.org/1999/xlink" x="0px"
	 y="0px" viewBox="0 0 1071 1034" style="enable-background:new 0 0 1071 1034;" xml:space="preserve">
<style type="text/css">
	.st0{fill:none;stroke:#9B9B9B;stroke-miterlimit:10;}
	.st1{opacity:0.3;}
	.st2{fill:#4B78B8;}
	.st3{fill:#FFFFFF;}
	.st4{fill:#C9DBF3;}
	.st5{fill:#E9EFF7;}
	.st6{fill:#E9E9E9;}
</style>
<polyline class="st0" points="187.7,916.2 187.7,734.7 981,734.7 981,800.6 "/>
<line class="st0" x1="585.3" y1="208" x2="585.3" y2="916.2"/>
<g>
	<g class="st1">
		
			<image style="overflow:visible;" width="574" height="573" xlink:href="9A530DAC.png"  transform="matrix(0.48 0 0 0.48 447.36 -28.32)">
		</image>
	</g>
	<circle class="st2" cx="585.3" cy="107.8" r="100.1"/>
	<circle class="st3" cx="585.3" cy="107.8" r="68.4"/>
	<g>
		<path d="M561,106.2c0,6-3,9.7-7.1,9.7c-4.1,0-7.1-3.7-7.1-9.7c0-5.9,3-9.6,7.1-9.6C558,96.6,561,100.3,561,106.2z M550.6,106.2
			c0,4,1.4,6.2,3.4,6.2c2,0,3.4-2.1,3.4-6.2c0-4-1.4-6.1-3.4-6.1C552,100.1,550.6,102.2,550.6,106.2z M568.5,94.7v27.1h-3.9V94.7
			H568.5z"/>
		<path d="M583,100.7c0,4.9,1.9,9.8,6.2,11.9l-2.3,3c-2.8-1.4-4.7-4-5.8-7.3c-1.2,3.4-3.2,6.3-6.2,7.8l-2.3-3.1
			c4.5-2.1,6.6-7.3,6.6-12.3v-3.9h3.9V100.7z M598.1,108.3h-3.9v13.4h-3.9v-27h3.9v10.4h3.9V108.3z"/>
		<path d="M610.8,113.9c2.2-0.1,4.4-0.3,6.5-0.6l0.3,2.8c-5.9,1.1-12.1,1.1-16.9,1.1l-0.5-3.1c2,0,4.3,0,6.7-0.1v-2.3
			c-2.9-0.6-4.8-2.4-4.8-4.9c0-3,2.8-5.1,6.7-5.1c3.9,0,6.7,2.1,6.7,5.1c0,2.5-1.9,4.3-4.8,4.9V113.9z M616.9,100.7h-16.2v-3h6.2
			v-2.9h3.9v2.9h6.2V100.7z M608.8,109c1.8,0,3-0.8,3-2.2c0-1.4-1.2-2.1-3-2.1c-1.8,0-3,0.8-3,2.1C605.8,108.2,607.1,109,608.8,109z
			 M622.6,94.7v27h-3.9v-27H622.6z"/>
	</g>
</g>
<g>
	<path class="st4" d="M673.1,325.3H497.5c-6.6,0-12-5.4-12-12v-35.4c0-6.6,5.4-12,12-12h175.5c6.6,0,12,5.4,12,12v35.4
		C685.1,319.9,679.7,325.3,673.1,325.3z"/>
	<g>
		<path d="M552.6,298.9c2,0,3.7-0.1,5.5-0.5l0.2,1.7c-2.1,0.4-4,0.5-6.5,0.5h-1.2v-11.4h6.6v1.7h-4.6V298.9z M565.2,287.1v17.8h-1.9
			v-9.1h-2.1v8.2h-1.9v-16.5h1.9v6.7h2.1v-7H565.2z"/>
		<path d="M584.3,301.1v1.7h-16.1v-1.7h4.2v-3.8h-2.9v-1.6h2.6v-5.4h-2.6v-1.6h13.4v1.6h-2.6v5.4h2.6v1.6H580v3.8H584.3z
			 M574.1,295.7h4.1v-5.4h-4.1V295.7z M574.4,301.1h3.5v-3.8h-3.5V301.1z"/>
		<path d="M596.1,294.6c0,3.9-1.9,6.3-4.6,6.3c-2.6,0-4.6-2.4-4.6-6.3c0-3.8,1.9-6.3,4.6-6.3C594.1,288.4,596.1,290.8,596.1,294.6z
			 M588.8,294.6c0,2.8,1.1,4.5,2.6,4.5c1.6,0,2.6-1.7,2.6-4.5c0-2.8-1.1-4.4-2.6-4.4C589.9,290.2,588.8,291.9,588.8,294.6z
			 M600.9,287.1v17.8h-2v-17.8H600.9z"/>
		<path d="M610.7,291.5c0,3.2,1.7,6.4,4.3,7.7l-1.2,1.6c-1.9-1-3.3-2.9-4.1-5.2c-0.8,2.5-2.3,4.5-4.3,5.6l-1.2-1.6
			c2.8-1.4,4.5-4.7,4.5-8v-2.9h2V291.5z M621,295.8h-2.8v9.1h-2v-17.8h2v7.1h2.8V295.8z"/>
	</g>
</g>
<g>
	<path class="st5" d="M316,434.4H140.5c-6.6,0-12-5.4-12-12v-35.4c0-6.6,5.4-12,12-12H316c6.6,0,12,5.4,12,12v35.4
		C328,429,322.6,434.4,316,434.4z"/>
	<g>
		<path d="M165.6,408.3c2.7,0,5.1-0.2,7.8-0.6l0.2,1.6c-2.9,0.5-5.5,0.6-8.5,0.6h-1.5v-6.8h6v-3.2h-6v-1.6h8v6.4h-6V408.3z
			 M176.8,396.8V414h-2v-17.2H176.8z"/>
		<path d="M194.7,410.1v1.6h-15.5v-1.6H194.7z M193.2,406.8c-2.8-0.6-5.2-2.4-6.3-4.7c-1.1,2.4-3.5,4.1-6.3,4.7l-0.8-1.6
			c3.4-0.6,6.1-3.3,6.1-6v-1.3h2.1v1.3c0,2.7,2.8,5.4,6.1,6L193.2,406.8z"/>
		<path d="M211.2,410.1v1.6h-15.5v-1.6H211.2z M207.5,403.2c0-0.9,0-1.8,0-2.7V400h-10v-1.6h11.9v2.1c0,2.5,0,4.8-0.8,8.5l-1.9-0.2
			c0.4-1.5,0.6-2.9,0.6-4.1l-10.1,0.5l-0.2-1.6L207.5,403.2z"/>
		<path d="M222.8,406.4c-3.6,0.6-7.6,0.7-10.6,0.7l-0.2-1.6c1,0,2.2,0,3.4,0V402h1.9v3.5c1.8-0.1,3.6-0.2,5.3-0.5L222.8,406.4z
			 M219.3,403.9c0.3-1.8,0.4-3.2,0.4-4.3h-6.7v-1.6h8.6v1c0,1.2,0,2.8-0.4,5.1L219.3,403.9z M216.6,412h9.7v1.6h-11.7v-5.1h2V412z
			 M228,402.2v1.6h-2.3v5.8h-2v-12.9h2v5.4H228z"/>
		<path d="M231.7,408.3c2.7,0,5.1-0.2,7.8-0.6l0.2,1.6c-2.9,0.5-5.5,0.6-8.5,0.6h-1.5v-6.8h6v-3.2h-6v-1.6h8v6.4h-6V408.3z
			 M242.9,396.8V414h-2v-17.2H242.9z"/>
		<path d="M256.5,406.8c-1.5,0.3-3.1,0.5-4.6,0.6v6h-2v-5.9c-1.6,0.1-3.1,0.1-4.5,0.1l-0.2-1.6c3.1,0,7.4-0.1,11.1-0.6L256.5,406.8z
			 M246.4,401.1c0-2.1,1.9-3.6,4.4-3.6s4.4,1.5,4.4,3.6c0,2.1-1.9,3.6-4.4,3.6S246.4,403.3,246.4,401.1z M248.3,401.1
			c0,1.2,1.1,2,2.5,2c1.5,0,2.5-0.8,2.5-2c0-1.2-1-2-2.5-2C249.4,399.2,248.3,399.9,248.3,401.1z M259.4,396.8V414h-2v-17.2H259.4z"
			/>
		<path d="M266.5,406.1c-1.6,0.1-3.2,0.1-4.5,0.1l-0.2-1.6c3.2,0,7.4-0.1,11-0.5l0.2,1.4c-1.4,0.2-2.9,0.4-4.4,0.5v3.3h-2V406.1z
			 M263,400.5c0-1.8,1.7-3,4.3-3c2.5,0,4.2,1.2,4.2,3s-1.7,3-4.2,3C264.7,403.5,263,402.3,263,400.5z M276.4,412v1.6H264v-5.1h2v3.5
			H276.4z M264.9,400.5c0,1,1,1.6,2.4,1.6c1.4,0,2.4-0.6,2.4-1.6c0-1-1-1.6-2.4-1.6C265.8,398.9,264.9,399.5,264.9,400.5z
			 M274,406.9v-10.1h2v13.1h-2v-1.6h-3.4v-1.4H274z"/>
		<path d="M284.9,409.2c1.5-0.1,3.1-0.2,4.6-0.4l0.1,1.4c-3.8,0.6-7.8,0.7-11,0.7l-0.2-1.6c1.4,0,2.9,0,4.6-0.1v-1.7
			c-1.9-0.3-3.2-1.5-3.2-3.1c0-1.9,1.7-3.2,4.2-3.2c2.5,0,4.2,1.3,4.2,3.2c0,1.7-1.3,2.8-3.2,3.1V409.2z M289.1,400.4h-10.4v-1.6
			h4.2v-2h2v2h4.2V400.4z M284,406.1c1.4,0,2.3-0.6,2.3-1.7c0-1-0.9-1.7-2.3-1.7c-1.4,0-2.3,0.6-2.3,1.7
			C281.6,405.5,282.6,406.1,284,406.1z M292.4,396.8V414h-2v-17.2H292.4z"/>
	</g>
</g>
<g>
	<path class="st5" d="M316,519.6H140.5c-6.6,0-12-5.4-12-12v-35.4c0-6.6,5.4-12,12-12H316c6.6,0,12,5.4,12,12v35.4
		C328,514.2,322.6,519.6,316,519.6z"/>
	<g>
		<path d="M186.4,493.9h-6.8v5.3h-2v-5.3h-6.8v-1.6h15.6V493.9z M184.7,490.7h-11.9v-8h11.7v1.6h-9.7v1.7h9.3v1.5h-9.3v1.7h9.9
			V490.7z"/>
		<path d="M193.4,486.9c0,2.7,1.7,5.7,4.3,6.9l-1.1,1.5c-1.9-0.9-3.4-2.8-4.2-5c-0.8,2.4-2.3,4.4-4.3,5.4l-1.1-1.6
			c2.6-1.3,4.4-4.5,4.4-7.4v-1.7h-3.7v-1.6h9.3v1.6h-3.6V486.9z M203.4,490.3h-2.7v8.8h-2V482h2v6.8h2.7V490.3z"/>
		<path d="M213.4,491c-2-0.6-3.4-2-4.2-3.7c-0.8,1.8-2.3,3.3-4.3,4l-1-1.5c2.7-0.9,4.2-3.2,4.2-5.5v-1.7h2v1.7
			c0,2.3,1.5,4.4,4.2,5.2L213.4,491z M206.8,492.6h11.2v6.3h-11.2V492.6z M208.8,497.3h7.4v-3.2h-7.4V497.3z M218.1,482v9.7h-2V482
			H218.1z"/>
		<path d="M220.5,493.9c3.1,0,7.4,0,11-0.6l0.1,1.4c-3.8,0.7-7.9,0.8-10.9,0.8L220.5,493.9z M230.7,487.3c0,2.4-2,4.1-4.7,4.1
			s-4.7-1.7-4.7-4.1s2-4.1,4.7-4.1S230.7,484.8,230.7,487.3z M223.3,487.3c0,1.5,1.2,2.5,2.7,2.5c1.6,0,2.8-1,2.8-2.5
			c0-1.5-1.2-2.5-2.8-2.5C224.4,484.8,223.3,485.8,223.3,487.3z M234.6,481.9v17.2h-2v-17.2H234.6z"/>
		<path d="M248.2,492c-1.5,0.3-3.1,0.5-4.6,0.6v6h-2v-5.9c-1.6,0.1-3.1,0.1-4.5,0.1l-0.2-1.6c3.1,0,7.4-0.1,11.1-0.6L248.2,492z
			 M238.1,486.3c0-2.1,1.9-3.6,4.4-3.6s4.4,1.5,4.4,3.6c0,2.1-1.9,3.6-4.4,3.6S238.1,488.4,238.1,486.3z M240,486.3
			c0,1.2,1.1,2,2.5,2c1.5,0,2.5-0.8,2.5-2c0-1.2-1-2-2.5-2C241.1,484.3,240,485.1,240,486.3z M251.2,482v17.2h-2V482H251.2z"/>
		<path d="M258.2,491.3c-1.6,0.1-3.2,0.1-4.5,0.1l-0.2-1.6c3.2,0,7.4-0.1,11-0.5l0.2,1.4c-1.4,0.2-2.9,0.4-4.4,0.5v3.3h-2V491.3z
			 M254.7,485.6c0-1.8,1.7-3,4.3-3c2.5,0,4.2,1.2,4.2,3s-1.7,3-4.2,3C256.5,488.6,254.7,487.5,254.7,485.6z M268.1,497.2v1.6h-12.4
			v-5.1h2v3.5H268.1z M256.6,485.6c0,1,1,1.6,2.4,1.6c1.4,0,2.4-0.6,2.4-1.6c0-1-1-1.6-2.4-1.6C257.6,484.1,256.6,484.7,256.6,485.6
			z M265.8,492v-10.1h2V495h-2v-1.6h-3.4V492H265.8z"/>
		<path d="M276.7,494.3c1.5-0.1,3.1-0.2,4.6-0.4l0.1,1.4c-3.8,0.6-7.8,0.7-11,0.7l-0.2-1.6c1.4,0,2.9,0,4.6-0.1v-1.7
			c-1.9-0.3-3.2-1.5-3.2-3.1c0-1.9,1.7-3.2,4.2-3.2c2.5,0,4.2,1.3,4.2,3.2c0,1.7-1.3,2.8-3.2,3.1V494.3z M280.9,485.5h-10.4V484h4.2
			v-2h2v2h4.2V485.5z M275.7,491.3c1.4,0,2.3-0.6,2.3-1.7c0-1-0.9-1.7-2.3-1.7c-1.4,0-2.3,0.6-2.3,1.7
			C273.4,490.6,274.3,491.3,275.7,491.3z M284.2,481.9v17.2h-2v-17.2H284.2z"/>
	</g>
</g>
<g>
	<path class="st5" d="M1032.8,561.8H857.3c-6.6,0-12-5.4-12-12v-35.4c0-6.6,5.4-12,12-12h175.5c6.6,0,12,5.4,12,12v35.4
		C1044.8,556.4,1039.4,561.8,1032.8,561.8z"/>
	<g>
		<path d="M937.7,525.2c0,4.4-2.9,7.6-8,8.9l-0.8-1.6c4-1.1,6.3-3.2,6.7-5.8h-5.9v-1.6H937.7z M931.4,534.6h11v6.5h-11V534.6z
			 M933.4,539.5h7.1v-3.4h-7.1V539.5z M944.8,529.8h-2.4v4.1h-2v-9.7h2v4h2.4V529.8z"/>
		<path d="M951.5,528.4c0,3.1,1.6,6.2,4.2,7.4l-1.2,1.6c-1.8-1-3.2-2.8-4-5.1c-0.7,2.4-2.2,4.4-4.1,5.4l-1.2-1.6
			c2.7-1.3,4.4-4.6,4.4-7.7v-2.8h2V528.4z M961.5,532.6h-2.7v8.7h-2v-17.2h2v6.8h2.7V532.6z"/>
	</g>
</g>
<g>
	<path class="st6" d="M662.4,860h-156c-6.6,0-12-5.4-12-12v-35.4c0-6.6,5.4-12,12-12h156c6.6,0,12,5.4,12,12V848
		C674.4,854.6,669,860,662.4,860z"/>
	<g>
		<path d="M543.5,826.9c-1.1,2.7-3.6,4.7-7.3,5.7l-0.8-1.6c4-1.1,6.2-3.2,6.6-5.9h-5.7v-1.6h7.8c0,0.6-0.1,1.2-0.2,1.7h3.5v-2.9h2
			v10.1h-2v-2h-4.2v-1.6h4.2v-2H543.5z M549.6,836.1c0,2.1-2.3,3.4-5.7,3.4s-5.7-1.3-5.7-3.4c0-2.1,2.2-3.4,5.7-3.4
			S549.6,834,549.6,836.1z M547.7,836.1c0-1.2-1.5-1.8-3.8-1.8c-2.3,0-3.8,0.7-3.8,1.8c0,1.2,1.5,1.9,3.8,1.9
			C546.2,837.9,547.7,837.3,547.7,836.1z"/>
		<path d="M559.9,830.2c-0.8,0.9-2,1.4-3.4,1.4c-2.6,0-4.5-1.7-4.5-4.1c0-2.4,1.9-4.1,4.5-4.1c1.4,0,2.6,0.5,3.4,1.4h4.1v-2.4h2
			v10.1h-2v-2.3H559.9z M556.5,830c1.5,0,2.6-1,2.6-2.5c0-1.5-1.1-2.5-2.6-2.5c-1.5,0-2.6,1-2.6,2.5C553.9,829,555,830,556.5,830z
			 M566.1,836.2c0,2.1-2.2,3.3-5.8,3.3s-5.8-1.2-5.8-3.3c0-2.1,2.2-3.3,5.8-3.3S566.1,834.1,566.1,836.2z M564.2,836.2
			c0-1.1-1.4-1.8-3.9-1.8c-2.4,0-3.9,0.6-3.9,1.8c0,1.2,1.4,1.8,3.9,1.8C562.8,838,564.2,837.4,564.2,836.2z M560.8,826.3
			c0.1,0.4,0.2,0.7,0.2,1.2s-0.1,0.8-0.2,1.2h3.3v-2.3H560.8z"/>
		<path d="M579,832c-3.6,0.6-7.6,0.7-10.6,0.7l-0.2-1.6c1,0,2.2,0,3.4,0v-3.5h1.9v3.5c1.8-0.1,3.6-0.2,5.3-0.5L579,832z
			 M575.5,829.5c0.3-1.8,0.4-3.2,0.4-4.3h-6.7v-1.6h8.6v1c0,1.2,0,2.8-0.4,5.1L575.5,829.5z M572.7,837.6h9.7v1.6h-11.7v-5.1h2
			V837.6z M584.1,827.8v1.6h-2.3v5.8h-2v-12.9h2v5.4H584.1z"/>
		<path d="M587.8,833.9c2.7,0,5.1-0.2,7.8-0.6l0.2,1.6c-2.9,0.5-5.5,0.6-8.5,0.6h-1.5v-6.8h6v-3.2h-6v-1.6h8v6.4h-6V833.9z
			 M599,822.4v17.2h-2v-17.2H599z"/>
		<path d="M616.9,831.6v1.6h-15.6v-1.6h6.8V830h-4.7v-6.9h1.9v1.9h7.6v-1.9h1.9v6.9h-4.8v1.7H616.9z M605.3,837.6h9.9v1.6h-11.8
			v-4.8h2V837.6z M605.3,828.4h7.6v-1.9h-7.6V828.4z"/>
		<path d="M633.5,834h-6.9v5.6h-2V834h-6.7v-1.6h15.6V834z M631.6,830.6h-11.8v-7.5h2v2.2h7.8v-2.2h2V830.6z M629.6,826.8h-7.8v2.2
			h7.8V826.8z"/>
	</g>
</g>
<g>
	<path class="st6" d="M1059,860H903c-6.6,0-12-5.4-12-12v-35.4c0-6.6,5.4-12,12-12h156c6.6,0,12,5.4,12,12V848
		C1071,854.6,1065.6,860,1059,860z"/>
	<g>
		<path d="M955.7,831.1v1.6h-6.6v3.2h-2v-3.2h-7v-1.6H955.7z M941,828.5c3.2-0.4,5.5-2,5.6-3.7h-5v-1.6h12.7v1.6h-5
			c0.2,1.7,2.4,3.3,5.6,3.7l-0.7,1.6c-3-0.4-5.3-1.7-6.2-3.6c-0.9,1.9-3.2,3.3-6.2,3.6L941,828.5z M944,837.6h10v1.6H942v-4.9h2
			V837.6z"/>
		<path d="M970.9,822.4v9.4h-2v-3.7h-3.6v3.1h-7.9v-8h1.9v2.4h4v-2.4h1.9v3.2h3.6v-4.1L970.9,822.4z M963.5,827.2h-4v2.4h4V827.2z
			 M969,832.6h2v6.7h-11.2v-6.7h1.9v1.8h7.3V832.6z M969,835.9h-7.3v1.8h7.3V835.9z"/>
		<path d="M981.9,823.4c0,4.4-2.9,7.6-8,8.9l-0.8-1.6c4-1.1,6.3-3.2,6.7-5.8h-5.9v-1.6H981.9z M975.7,832.8h11v6.5h-11V832.8z
			 M977.6,837.8h7.1v-3.4h-7.1V837.8z M989.1,828h-2.4v4.1h-2v-9.7h2v4h2.4V828z"/>
		<path d="M996.1,826.6c0,3.2,1.7,6.3,4.4,7.5l-1.1,1.6c-2-0.9-3.5-2.8-4.3-5.1c-0.8,2.5-2.3,4.5-4.4,5.5l-1.2-1.6
			c2.7-1.2,4.5-4.5,4.5-7.8v-2.8h2V826.6z M1003.9,822.4v17.2h-2v-17.2H1003.9z"/>
		<path d="M1011.2,832.1c-2.6,0-4.6-1.8-4.6-4.3c0-2.5,2-4.3,4.6-4.3c2.6,0,4.5,1.8,4.5,4.3C1015.7,830.3,1013.8,832.1,1011.2,832.1
			z M1011.2,830.4c1.5,0,2.6-1,2.6-2.6c0-1.6-1.1-2.6-2.6-2.6c-1.5,0-2.6,1-2.6,2.6C1008.5,829.4,1009.7,830.4,1011.2,830.4z
			 M1020.9,837.6v1.6h-11.7v-5.6h2v4H1020.9z M1020.4,834.9h-2v-12.5h2V834.9z"/>
	</g>
</g>
<g>
	<path class="st6" d="M259.2,859.5h-156c-6.6,0-12-5.4-12-12v-35.4c0-6.6,5.4-12,12-12h156c6.6,0,12,5.4,12,12v35.4
		C271.2,854.1,265.8,859.5,259.2,859.5z"/>
	<g>
		<path d="M170.1,830.4v1.6h-6.6v3.2h-2V832h-6.9v-1.6H170.1z M156.3,825.8c0-2.1,2.4-3.5,6.1-3.5c3.7,0,6.1,1.3,6.1,3.5
			s-2.4,3.5-6.1,3.5C158.6,829.2,156.3,827.9,156.3,825.8z M158.5,837.1h10v1.6h-11.9v-5.1h2V837.1z M158.3,825.8
			c0,1.2,1.6,1.9,4,1.9c2.4,0,4-0.7,4-1.9s-1.6-1.9-4-1.9C159.9,823.8,158.3,824.5,158.3,825.8z"/>
		<path d="M186.6,830.2v1.6h-15.5v-1.6h3.7v-2.3c-1.3-0.6-2-1.4-2-2.5c0-2,2.4-3.2,6.1-3.2c3.7,0,6.1,1.2,6.1,3.2
			c0,1.1-0.8,2-2.1,2.6v2.3H186.6z M184.7,836c0,2-2.2,3.1-5.9,3.1c-3.7,0-5.9-1.1-5.9-3.1c0-2,2.2-3.1,5.9-3.1
			C182.5,832.9,184.7,834,184.7,836z M174.8,825.4c0,1.1,1.5,1.7,4.1,1.7c2.5,0,4.1-0.6,4.1-1.7c0-1.1-1.5-1.7-4.1-1.7
			C176.3,823.7,174.8,824.3,174.8,825.4z M182.8,836c0-1-1.4-1.6-3.9-1.6c-2.5,0-3.9,0.6-3.9,1.6c0,1,1.4,1.6,3.9,1.6
			C181.3,837.5,182.8,837,182.8,836z M176.7,830.2h4.2v-1.7c-0.6,0.1-1.3,0.2-2.1,0.2s-1.5-0.1-2.1-0.2V830.2z"/>
		<path d="M203.2,831.1v1.6h-15.6v-1.6h6.8v-1.7h-4.7v-6.9h1.9v1.9h7.6v-1.9h1.9v6.9h-4.8v1.7H203.2z M191.6,837.1h9.9v1.6h-11.8
			v-4.8h2V837.1z M191.6,827.9h7.6V826h-7.6V827.9z"/>
		<path d="M219.7,833.5h-6.9v5.6h-2v-5.6h-6.7v-1.6h15.6V833.5z M217.8,830H206v-7.5h2v2.2h7.8v-2.2h2V830z M215.8,826.3H208v2.2
			h7.8V826.3z"/>
	</g>
</g>
<g>
	<path class="st6" d="M168,1033.9H12c-6.6,0-12-5.4-12-12v-35.4c0-6.6,5.4-12,12-12h156c6.6,0,12,5.4,12,12v35.4
		C180,1028.5,174.6,1033.9,168,1033.9z"/>
	<g>
		<path d="M81.2,1004.8v1.6h-6.6v3.2h-2v-3.2h-6.9v-1.6H81.2z M67.4,1000.2c0-2.1,2.4-3.5,6.1-3.5c3.7,0,6.1,1.3,6.1,3.5
			c0,2.1-2.4,3.5-6.1,3.5C69.8,1003.7,67.4,1002.3,67.4,1000.2z M69.6,1011.5h10v1.6H67.6v-5.1h2V1011.5z M69.4,1000.2
			c0,1.2,1.6,1.9,4,1.9c2.4,0,4-0.7,4-1.9s-1.6-1.9-4-1.9C71,998.3,69.4,999,69.4,1000.2z"/>
		<path d="M97.7,1004.7v1.6H82.2v-1.6h3.7v-2.3c-1.3-0.6-2-1.4-2-2.5c0-2,2.4-3.2,6.1-3.2c3.7,0,6.1,1.2,6.1,3.2
			c0,1.1-0.8,2-2.1,2.6v2.3H97.7z M95.9,1010.4c0,2-2.2,3.1-5.9,3.1c-3.7,0-5.9-1.1-5.9-3.1c0-2,2.2-3.1,5.9-3.1
			C93.6,1007.3,95.9,1008.4,95.9,1010.4z M85.9,999.8c0,1.1,1.5,1.7,4.1,1.7c2.5,0,4.1-0.6,4.1-1.7s-1.5-1.7-4.1-1.7
			C87.4,998.1,85.9,998.7,85.9,999.8z M93.9,1010.4c0-1-1.4-1.6-3.9-1.6s-3.9,0.6-3.9,1.6c0,1,1.4,1.6,3.9,1.6
			S93.9,1011.4,93.9,1010.4z M87.9,1004.7h4.2v-1.7c-0.6,0.1-1.3,0.2-2.1,0.2s-1.5-0.1-2.1-0.2V1004.7z"/>
		<path d="M109.4,1005.1c-2.5,0.4-4.6,0.5-8.2,0.5h-1.4v-8.3h8.2v1.6h-6.3v1.8h5.8v1.5h-5.8v1.9c3.3,0,5.3-0.1,7.5-0.5L109.4,1005.1
			z M101.7,1007.3h11.2v5.9h-11.2V1007.3z M103.6,1011.7h7.4v-2.8h-7.4V1011.7z M112.9,996.3v10.2h-2v-10.2H112.9z"/>
	</g>
</g>
<g>
	<path class="st6" d="M374.3,1033.9h-156c-6.6,0-12-5.4-12-12v-35.4c0-6.6,5.4-12,12-12h156c6.6,0,12,5.4,12,12v35.4
		C386.3,1028.5,380.9,1033.9,374.3,1033.9z"/>
	<g>
		<path d="M271,1004.8v1.6h-6.6v3.2h-2v-3.2h-6.9v-1.6H271z M257.2,1000.2c0-2.1,2.4-3.5,6.1-3.5c3.7,0,6.1,1.3,6.1,3.5
			c0,2.1-2.4,3.5-6.1,3.5C259.6,1003.7,257.2,1002.3,257.2,1000.2z M259.4,1011.5h10v1.6h-11.9v-5.1h2V1011.5z M259.2,1000.2
			c0,1.2,1.6,1.9,4,1.9c2.4,0,4-0.7,4-1.9s-1.6-1.9-4-1.9C260.8,998.3,259.2,999,259.2,1000.2z"/>
		<path d="M287.5,1004.7v1.6H272v-1.6h3.7v-2.3c-1.3-0.6-2-1.4-2-2.5c0-2,2.4-3.2,6.1-3.2c3.7,0,6.1,1.2,6.1,3.2
			c0,1.1-0.8,2-2.1,2.6v2.3H287.5z M285.7,1010.4c0,2-2.2,3.1-5.9,3.1c-3.7,0-5.9-1.1-5.9-3.1c0-2,2.2-3.1,5.9-3.1
			C283.4,1007.3,285.7,1008.4,285.7,1010.4z M275.7,999.8c0,1.1,1.5,1.7,4.1,1.7c2.5,0,4.1-0.6,4.1-1.7s-1.5-1.7-4.1-1.7
			C277.2,998.1,275.7,998.7,275.7,999.8z M283.7,1010.4c0-1-1.4-1.6-3.9-1.6c-2.5,0-3.9,0.6-3.9,1.6c0,1,1.4,1.6,3.9,1.6
			C282.3,1012,283.7,1011.4,283.7,1010.4z M277.7,1004.7h4.2v-1.7c-0.6,0.1-1.3,0.2-2.1,0.2s-1.5-0.1-2.1-0.2V1004.7z"/>
		<path d="M294.9,1001.3c0,2.8,1.8,5.8,4.4,7l-1.1,1.5c-2-0.9-3.5-2.7-4.3-5c-0.8,2.4-2.3,4.4-4.3,5.4l-1.1-1.6
			c2.7-1.2,4.4-4.4,4.4-7.4v-1.6h-3.8V998h9.6v1.6h-3.8V1001.3z M302.7,996.3v17.2h-2v-17.2H302.7z"/>
		<path d="M309.8,1005.6c-1.6,0.1-3.2,0.1-4.5,0.1l-0.2-1.6c3.2,0,7.4-0.1,11-0.5l0.2,1.4c-1.4,0.2-2.9,0.4-4.4,0.5v3.3h-2V1005.6z
			 M306.3,1000c0-1.8,1.7-3,4.3-3c2.5,0,4.2,1.2,4.2,3c0,1.8-1.7,3-4.2,3C308,1003,306.3,1001.8,306.3,1000z M319.7,1011.5v1.6
			h-12.4v-5.1h2v3.5H319.7z M308.2,1000c0,1,1,1.6,2.4,1.6c1.4,0,2.4-0.6,2.4-1.6c0-1-1-1.6-2.4-1.6
			C309.1,998.4,308.2,999,308.2,1000z M317.3,1006.4v-10.1h2v13.1h-2v-1.6H314v-1.4H317.3z"/>
		<path d="M332.3,1005.1c-2.5,0.4-4.6,0.5-8.2,0.5h-1.4v-8.3h8.2v1.6h-6.3v1.8h5.8v1.5h-5.8v1.9c3.3,0,5.3-0.1,7.5-0.5L332.3,1005.1
			z M324.5,1007.3h11.2v5.9h-11.2V1007.3z M326.4,1011.7h7.4v-2.8h-7.4V1011.7z M335.8,996.3v10.2h-2v-10.2H335.8z"/>
	</g>
</g>
<g>
	<path class="st6" d="M575.3,1033.9h-156c-6.6,0-12-5.4-12-12v-35.4c0-6.6,5.4-12,12-12h156c6.6,0,12,5.4,12,12v35.4
		C587.3,1028.5,581.9,1033.9,575.3,1033.9z"/>
	<g>
		<path d="M464.7,1000.9c-1.1,2.7-3.6,4.7-7.3,5.7l-0.8-1.6c4-1.1,6.2-3.2,6.6-5.9h-5.7v-1.6h7.8c0,0.6-0.1,1.2-0.2,1.7h3.5v-2.9h2
			v10.1h-2v-2h-4.2v-1.6h4.2v-2H464.7z M470.8,1010c0,2.1-2.3,3.4-5.7,3.4s-5.7-1.3-5.7-3.4c0-2.1,2.2-3.4,5.7-3.4
			S470.8,1007.9,470.8,1010z M468.8,1010c0-1.2-1.5-1.8-3.8-1.8c-2.3,0-3.8,0.7-3.8,1.8c0,1.2,1.5,1.9,3.8,1.9
			C467.4,1011.9,468.8,1011.2,468.8,1010z"/>
		<path d="M481.1,1004.2c-0.8,0.9-2,1.4-3.4,1.4c-2.6,0-4.5-1.7-4.5-4.1c0-2.4,1.9-4.1,4.5-4.1c1.4,0,2.6,0.5,3.4,1.4h4.1v-2.4h2
			v10.1h-2v-2.3H481.1z M477.7,1003.9c1.5,0,2.6-1,2.6-2.5c0-1.5-1.1-2.5-2.6-2.5c-1.5,0-2.6,1-2.6,2.5
			C475.1,1002.9,476.2,1003.9,477.7,1003.9z M487.3,1010.1c0,2.1-2.2,3.3-5.8,3.3c-3.6,0-5.8-1.2-5.8-3.3c0-2.1,2.2-3.3,5.8-3.3
			C485.1,1006.8,487.3,1008,487.3,1010.1z M485.3,1010.1c0-1.1-1.4-1.8-3.9-1.8c-2.4,0-3.9,0.6-3.9,1.8c0,1.2,1.4,1.8,3.9,1.8
			C483.9,1011.9,485.3,1011.3,485.3,1010.1z M482,1000.3c0.1,0.4,0.2,0.7,0.2,1.2s-0.1,0.8-0.2,1.2h3.3v-2.3H482z"/>
		<path d="M500.1,1005.9c-3.6,0.6-7.6,0.7-10.6,0.7l-0.2-1.6c1,0,2.2,0,3.4,0v-3.5h1.9v3.5c1.8-0.1,3.6-0.2,5.3-0.5L500.1,1005.9z
			 M496.7,1003.5c0.3-1.8,0.4-3.2,0.4-4.3h-6.7v-1.6h8.6v1c0,1.2,0,2.8-0.4,5.1L496.7,1003.5z M493.9,1011.5h9.7v1.6h-11.7v-5.1h2
			V1011.5z M505.3,1001.7v1.6H503v5.8h-2v-12.9h2v5.4H505.3z"/>
		<path d="M509,1007.8c2.7,0,5.1-0.2,7.8-0.6l0.2,1.6c-2.9,0.5-5.5,0.6-8.5,0.6H507v-6.8h6v-3.2h-6v-1.6h8v6.4h-6V1007.8z
			 M520.2,996.3v17.2h-2v-17.2H520.2z"/>
		<path d="M533.2,1005.1c-2.5,0.4-4.6,0.5-8.2,0.5h-1.4v-8.3h8.2v1.6h-6.3v1.8h5.8v1.5h-5.8v1.9c3.3,0,5.3-0.1,7.5-0.5L533.2,1005.1
			z M525.5,1007.3h11.2v5.9h-11.2V1007.3z M527.4,1011.7h7.4v-2.8h-7.4V1011.7z M536.7,996.3v10.2h-2v-10.2H536.7z"/>
	</g>
</g>
<g>
	<path class="st6" d="M764.5,1033.9h-156c-6.6,0-12-5.4-12-12v-35.4c0-6.6,5.4-12,12-12h156c6.6,0,12,5.4,12,12v35.4
		C776.5,1028.5,771.1,1033.9,764.5,1033.9z"/>
	<g>
		<path d="M640.4,1007.8c2.7,0,5.1-0.2,7.8-0.6l0.2,1.6c-2.9,0.5-5.5,0.6-8.5,0.6h-1.5v-6.8h6v-3.2h-6v-1.6h8v6.4h-6V1007.8z
			 M651.6,996.3v17.2h-2v-17.2H651.6z"/>
		<path d="M669.5,1009.6v1.6H654v-1.6H669.5z M668,1006.3c-2.8-0.6-5.2-2.4-6.3-4.7c-1.1,2.4-3.5,4.1-6.3,4.7l-0.8-1.6
			c3.4-0.6,6.1-3.3,6.1-6v-1.3h2.1v1.3c0,2.7,2.8,5.4,6.1,6L668,1006.3z"/>
		<path d="M686,1009.6v1.6h-15.5v-1.6H686z M682.3,1002.7c0-0.9,0-1.8,0-2.7v-0.5h-10v-1.6h11.9v2.1c0,2.5,0,4.8-0.8,8.5l-1.9-0.2
			c0.4-1.5,0.6-2.9,0.6-4.1l-10.1,0.5l-0.2-1.6L682.3,1002.7z"/>
		<path d="M697.6,1005.9c-3.6,0.6-7.6,0.7-10.6,0.7l-0.2-1.6c1,0,2.2,0,3.4,0v-3.5h1.9v3.5c1.8-0.1,3.6-0.2,5.3-0.5L697.6,1005.9z
			 M694.2,1003.5c0.3-1.8,0.4-3.2,0.4-4.3h-6.7v-1.6h8.6v1c0,1.2,0,2.8-0.4,5.1L694.2,1003.5z M691.4,1011.5h9.7v1.6h-11.7v-5.1h2
			V1011.5z M702.8,1001.7v1.6h-2.3v5.8h-2v-12.9h2v5.4H702.8z"/>
		<path d="M706.5,1007.8c2.7,0,5.1-0.2,7.8-0.6l0.2,1.6c-2.9,0.5-5.5,0.6-8.5,0.6h-1.5v-6.8h6v-3.2h-6v-1.6h8v6.4h-6V1007.8z
			 M717.7,996.3v17.2h-2v-17.2H717.7z"/>
		<path d="M730.7,1005.1c-2.5,0.4-4.6,0.5-8.2,0.5h-1.4v-8.3h8.2v1.6H723v1.8h5.8v1.5H723v1.9c3.3,0,5.3-0.1,7.5-0.5L730.7,1005.1z
			 M723,1007.3h11.2v5.9H723V1007.3z M724.9,1011.7h7.4v-2.8h-7.4V1011.7z M734.2,996.3v10.2h-2v-10.2H734.2z"/>
	</g>
</g>
<g>
	<path class="st5" d="M316,604.7H140.5c-6.6,0-12-5.4-12-12v-35.4c0-6.6,5.4-12,12-12H316c6.6,0,12,5.4,12,12v35.4
		C328,599.3,322.6,604.7,316,604.7z"/>
	<g>
		<path d="M147.4,576.2c-2-0.6-3.4-1.9-4.2-3.5c-0.8,1.7-2.2,3.1-4.3,3.8l-1-1.5c2.7-0.8,4.3-2.9,4.3-5.1v-0.1h-3.7v-1.6h9.4v1.6
			h-3.7v0.1c0,2.1,1.6,4.1,4.2,4.9L147.4,576.2z M150,577.2h1.9v6.9h-11.2v-6.9h1.9v1.8h7.3V577.2z M150,580.6h-7.3v1.9h7.3V580.6z
			 M151.9,567.1v9.3h-2v-9.3H151.9z"/>
		<path d="M164.5,570.3h-10.1v-1.6h4.1V567h2v1.8h4.1V570.3z M159.4,577c-2.5,0-4.2-1.2-4.2-3c0-1.8,1.7-3,4.2-3
			c2.5,0,4.2,1.2,4.2,3C163.6,575.8,161.9,577,159.4,577z M165.8,577.8h1.9v6.2h-11v-6.2h1.9v1.6h7.1V577.8z M159.4,575.6
			c1.4,0,2.3-0.6,2.3-1.6c0-1-0.9-1.6-2.3-1.6c-1.4,0-2.3,0.6-2.3,1.6C157.1,575,158,575.6,159.4,575.6z M165.8,580.9h-7.1v1.6h7.1
			V580.9z M170.2,573h-2.4v4.1h-2v-10h2v4.3h2.4V573z"/>
		<path d="M186.4,579h-6.8v5.3h-2V579h-6.8v-1.6h15.6V579z M184.7,575.9h-11.9v-8h11.7v1.6h-9.7v1.7h9.3v1.5h-9.3v1.7h9.9V575.9z"/>
		<path d="M193.4,572.1c0,2.7,1.7,5.7,4.3,6.9l-1.1,1.5c-1.9-0.9-3.4-2.8-4.2-5c-0.8,2.4-2.3,4.4-4.3,5.4l-1.1-1.6
			c2.6-1.3,4.4-4.5,4.4-7.4v-1.7h-3.7v-1.6h9.3v1.6h-3.6V572.1z M203.4,575.5h-2.7v8.8h-2v-17.2h2v6.8h2.7V575.5z"/>
		<path d="M209.2,571.6c0,3.1,1.1,5.9,3.6,7.2l-1.1,1.5c-1.6-0.9-2.7-2.5-3.3-4.4c-0.6,2.2-1.7,3.9-3.4,4.9l-1.2-1.5
			c2.5-1.4,3.6-4.4,3.6-7.8v-1h-3.1V569h7.9v1.6h-2.9V571.6z M218.7,567.1v17.2h-1.9v-8.8h-1.9v8h-1.8v-16.1h1.8v6.5h1.9v-6.8H218.7
			z"/>
		<path d="M229.6,577.1c-1.9-0.7-3.3-2-4-3.7c-0.7,1.9-2.2,3.3-4.2,4.1l-1.1-1.5c2.8-0.9,4.2-3.2,4.2-5.8v-2h2v2
			c0,2.3,1.5,4.4,4.1,5.3L229.6,577.1z M225,582.4h9.6v1.6H223v-5.4h2V582.4z M236.3,572.2v1.6h-2.4v5.9h-2v-12.7h2v5.1H236.3z"/>
		<path d="M247,576.2c-3.2,0.6-7,0.6-9.8,0.6l-0.2-1.6c0.6,0,1.3,0,2,0v-5.3h-1.6v-1.6h9v1.6h-1.5v5c0.7,0,1.3-0.1,1.9-0.2
			L247,576.2z M251.3,581.1c0,2-2.2,3.1-5.8,3.1s-5.8-1.2-5.8-3.1c0-2,2.2-3.2,5.8-3.2S251.3,579.1,251.3,581.1z M240.9,575.2
			c0.7,0,1.4,0,2.2-0.1v-5.2h-2.2V575.2z M249.3,581.1c0-1.1-1.4-1.7-3.8-1.7c-2.5,0-3.8,0.6-3.8,1.7c0,1,1.4,1.6,3.8,1.6
			C247.9,582.8,249.3,582.2,249.3,581.1z M249.2,574.8h-2.5v-1.6h2.5v-1.6h-2.5V570h2.5v-2.9h2v10.5h-2V574.8z"/>
		<path d="M262.3,568.9c0,5-2.1,9.4-7.7,12.2l-1.1-1.5c4.2-2.1,6.5-5.2,6.9-9.1h-6v-1.6H262.3z M269.4,575.5h-2.6v8.7h-2v-17.2h2
			v6.8h2.6V575.5z"/>
		<path d="M281.3,577.2c-1.5,0.3-3.1,0.5-4.6,0.6v6h-2v-5.9c-1.6,0.1-3.1,0.1-4.5,0.1l-0.2-1.6c3.1,0,7.4-0.1,11.1-0.6L281.3,577.2z
			 M271.2,571.5c0-2.1,1.9-3.6,4.4-3.6s4.4,1.5,4.4,3.6c0,2.1-1.9,3.6-4.4,3.6S271.2,573.6,271.2,571.5z M273.1,571.5
			c0,1.2,1.1,2,2.5,2c1.5,0,2.5-0.8,2.5-2c0-1.2-1-2-2.5-2C274.2,569.5,273.1,570.3,273.1,571.5z M284.2,567.1v17.2h-2v-17.2H284.2z
			"/>
		<path d="M291.3,576.4c-1.6,0.1-3.2,0.1-4.5,0.1l-0.2-1.6c3.2,0,7.4-0.1,11-0.5l0.2,1.4c-1.4,0.2-2.9,0.4-4.4,0.5v3.3h-2V576.4z
			 M287.8,570.8c0-1.8,1.7-3,4.3-3c2.5,0,4.2,1.2,4.2,3c0,1.8-1.7,3-4.2,3C289.5,573.8,287.8,572.6,287.8,570.8z M301.2,582.4v1.6
			h-12.4v-5.1h2v3.5H301.2z M289.7,570.8c0,1,1,1.6,2.4,1.6c1.4,0,2.4-0.6,2.4-1.6s-1-1.6-2.4-1.6
			C290.6,569.2,289.7,569.8,289.7,570.8z M298.8,577.2v-10.1h2v13.1h-2v-1.6h-3.4v-1.4H298.8z"/>
		<path d="M309.7,579.5c1.5-0.1,3.1-0.2,4.6-0.4l0.1,1.4c-3.8,0.6-7.8,0.7-11,0.7l-0.2-1.6c1.4,0,2.9,0,4.6-0.1v-1.7
			c-1.9-0.3-3.2-1.5-3.2-3.1c0-1.9,1.7-3.2,4.2-3.2c2.5,0,4.2,1.3,4.2,3.2c0,1.7-1.3,2.8-3.2,3.1V579.5z M313.9,570.7h-10.4v-1.6
			h4.2v-2h2v2h4.2V570.7z M308.8,576.4c1.4,0,2.3-0.6,2.3-1.7c0-1-0.9-1.7-2.3-1.7c-1.4,0-2.3,0.6-2.3,1.7
			C306.4,575.8,307.4,576.4,308.8,576.4z M317.2,567.1v17.2h-2v-17.2H317.2z"/>
	</g>
</g>
<g>
	<path class="st5" d="M316,689.9H140.5c-6.6,0-12-5.4-12-12v-35.4c0-6.6,5.4-12,12-12H316c6.6,0,12,5.4,12,12v35.4
		C328,684.5,322.6,689.9,316,689.9z"/>
	<g>
		<path d="M192.3,662c-2.6,0-4.6-1.8-4.6-4.3c0-2.5,2-4.3,4.6-4.3c2.6,0,4.5,1.8,4.5,4.3C196.8,660.2,194.9,662,192.3,662z
			 M192.3,660.3c1.5,0,2.6-1,2.6-2.6c0-1.6-1.1-2.6-2.6-2.6c-1.5,0-2.6,1-2.6,2.6C189.6,659.3,190.8,660.3,192.3,660.3z M202,667.5
			v1.6h-11.7v-5.6h2v4H202z M201.5,664.7h-2v-12.5h2V664.7z"/>
		<path d="M209.9,656.5c0,3.1,1.6,6.2,4.2,7.4l-1.2,1.6c-1.8-1-3.2-2.8-4-5.1c-0.7,2.4-2.2,4.4-4.1,5.4l-1.2-1.6
			c2.7-1.3,4.3-4.6,4.3-7.7v-2.8h2V656.5z M219.9,660.7h-2.7v8.7h-2v-17.2h2v6.8h2.7V660.7z"/>
		<path d="M231.7,662.3c-1.5,0.3-3.1,0.5-4.6,0.6v6h-2V663c-1.6,0.1-3.1,0.1-4.5,0.1l-0.2-1.6c3.1,0,7.4-0.1,11.1-0.6L231.7,662.3z
			 M221.6,656.6c0-2.1,1.9-3.6,4.4-3.6s4.4,1.5,4.4,3.6c0,2.1-1.9,3.6-4.4,3.6S221.6,658.7,221.6,656.6z M223.5,656.6
			c0,1.2,1.1,2,2.5,2c1.5,0,2.5-0.8,2.5-2c0-1.2-1-2-2.5-2C224.6,654.6,223.5,655.4,223.5,656.6z M234.7,652.3v17.2h-2v-17.2H234.7z
			"/>
		<path d="M241.7,661.6c-1.6,0.1-3.2,0.1-4.5,0.1l-0.2-1.6c3.2,0,7.4-0.1,11-0.5l0.2,1.4c-1.4,0.2-2.9,0.4-4.4,0.5v3.3h-2V661.6z
			 M238.2,655.9c0-1.8,1.7-3,4.3-3c2.5,0,4.2,1.2,4.2,3c0,1.8-1.7,3-4.2,3C239.9,659,238.2,657.8,238.2,655.9z M251.6,667.5v1.6
			h-12.4V664h2v3.5H251.6z M240.1,655.9c0,1,1,1.6,2.4,1.6c1.4,0,2.4-0.6,2.4-1.6s-1-1.6-2.4-1.6C241,654.4,240.1,655,240.1,655.9z
			 M249.2,662.3v-10.1h2v13.1h-2v-1.6h-3.4v-1.4H249.2z"/>
		<path d="M260.1,664.6c1.5-0.1,3.1-0.2,4.6-0.4l0.1,1.4c-3.8,0.6-7.8,0.7-11,0.7l-0.2-1.6c1.4,0,2.9,0,4.6-0.1V663
			c-1.9-0.3-3.2-1.5-3.2-3.1c0-1.9,1.7-3.2,4.2-3.2c2.5,0,4.2,1.3,4.2,3.2c0,1.7-1.3,2.8-3.2,3.1V664.6z M264.3,655.8H254v-1.6h4.2
			v-2h2v2h4.2V655.8z M259.2,661.6c1.4,0,2.3-0.6,2.3-1.7c0-1-1-1.7-2.3-1.7c-1.4,0-2.3,0.6-2.3,1.7
			C256.8,660.9,257.8,661.6,259.2,661.6z M267.6,652.3v17.2h-2v-17.2H267.6z"/>
	</g>
</g>
<line class="st0" x1="328" y1="404.7" x2="585.3" y2="404.7"/>
<line class="st0" x1="328" y1="489.9" x2="585.3" y2="489.9"/>
<line class="st0" x1="328" y1="575.1" x2="585.3" y2="575.1"/>
<line class="st0" x1="328" y1="660.2" x2="585.3" y2="660.2"/>
<line class="st0" x1="845.3" y1="532.1" x2="585.3" y2="532.1"/>
<polyline class="st0" points="91.2,974.6 91.2,916.2 296.3,916.2 296.3,974.6 "/>
<polyline class="st0" points="494,974.6 494,916.2 699.1,916.2 699.1,974.6 "/>
<circle class="st2" cx="585.3" cy="208" r="2.6"/>
<circle class="st2" cx="585.3" cy="325.3" r="2.6"/>
<circle class="st2" cx="845.3" cy="532.1" r="2.6"/>
<circle class="st2" cx="328" cy="404.7" r="2.6"/>
<circle class="st2" cx="328" cy="489.9" r="2.6"/>
<circle class="st2" cx="328" cy="575.1" r="2.6"/>
<circle class="st2" cx="328" cy="660.2" r="2.6"/>
<circle class="st2" cx="187.7" cy="800.1" r="2.6"/>
<circle class="st2" cx="91.2" cy="974.6" r="2.6"/>
<circle class="st2" cx="296.3" cy="974.6" r="2.6"/>
<circle class="st2" cx="494" cy="974.6" r="2.6"/>
<circle class="st2" cx="699.1" cy="974.6" r="2.6"/>
<circle class="st2" cx="585.3" cy="800.1" r="2.6"/>
<circle class="st2" cx="981" cy="800.1" r="2.6"/>
</svg>
